<?xml version="1.0" encoding="UTF-8"?>
<!-- Generator: visioncortex VTracer 0.6.4 -->
<svg version="1.1" xmlns="http://www.w3.org/2000/svg" width="806" height="425">
<path d="M0 0 C1.981 1.641 3.795 3.205 5.441 5.18 C5.441 5.84 5.441 6.5 5.441 7.18 C6.101 7.18 6.761 7.18 7.441 7.18 C7.771 8.5 8.101 9.82 8.441 11.18 C9.101 11.18 9.761 11.18 10.441 11.18 C13.888 19.719 14.975 26.993 14.441 36.18 C13.781 36.18 13.121 36.18 12.441 36.18 C11.418 40.582 11.359 43.13 13.441 47.18 C13.771 47.51 14.101 47.84 14.441 48.18 C14.602 52.344 14.424 56.127 13.441 60.18 C13.924 60.485 14.406 60.791 14.902 61.105 C18.952 64.039 20.908 66.333 21.879 71.305 C22.639 77.25 22.629 83.197 22.441 89.18 C23.101 89.18 23.761 89.18 24.441 89.18 C24.69 91.282 24.915 93.386 25.129 95.492 C25.257 96.664 25.384 97.836 25.516 99.043 C25.441 102.18 25.441 102.18 24.371 103.961 C21.677 105.662 18.925 106.441 15.879 107.367 C6.774 110.484 0.137 115.42 -5.559 123.18 C-5.889 124.17 -6.219 125.16 -6.559 126.18 C-7.219 126.18 -7.879 126.18 -8.559 126.18 C-10.87 140.367 -10.775 152.332 -2.547 164.516 C-1.559 166.18 -1.559 166.18 -1.559 168.18 C-0.723 168.551 -0.723 168.551 0.129 168.93 C2.441 170.18 2.441 170.18 4.754 172.055 C12.175 177.923 19.339 180.39 28.629 181.242 C37.198 182.058 37.198 182.058 39.441 183.18 C41.552 187.293 41.984 191.52 42.441 196.055 C42.857 200.123 43.356 203.882 44.484 207.828 C45.396 211.019 45.74 213.627 45.754 216.93 C45.771 217.853 45.787 218.776 45.805 219.727 C45.373 222.638 44.511 223.215 42.441 225.18 C42.633 230.225 42.633 230.225 45.441 234.18 C45.664 237.441 45.444 240.167 44.754 243.367 C44.132 246.136 44.132 246.136 45.629 247.867 C47.439 249.226 47.439 249.226 49.504 250.367 C52.952 253.593 53.312 258.334 53.631 262.876 C53.709 265.834 53.714 268.783 53.691 271.742 C53.699 272.744 53.707 273.747 53.715 274.779 C53.7 280.306 53.286 284.961 51.441 290.18 C50.781 290.18 50.121 290.18 49.441 290.18 C49.111 291.5 48.781 292.82 48.441 294.18 C47.781 294.18 47.121 294.18 46.441 294.18 C46.18 294.779 45.918 295.379 45.648 295.996 C41.999 302.597 34.009 305.647 27.254 308.086 C18.634 310.559 9.72 311.535 0.839 312.62 C-8.002 313.701 -16.806 314.93 -25.607 316.295 C-41.475 318.754 -57.364 320.995 -73.29 323.049 C-76.642 323.482 -79.995 323.918 -83.348 324.353 C-85.789 324.669 -88.231 324.98 -90.673 325.291 C-98.181 326.258 -105.646 327.325 -113.094 328.688 C-122.657 330.437 -132.273 331.638 -141.918 332.831 C-152.78 334.182 -163.578 335.805 -174.379 337.578 C-188.658 339.922 -202.968 341.955 -217.308 343.889 C-224.328 344.836 -231.346 345.8 -238.363 346.77 C-239.077 346.868 -239.791 346.967 -240.526 347.068 C-260.817 349.877 -281.058 353.003 -301.301 356.137 C-339.083 361.985 -339.083 361.985 -356.871 364.055 C-368.292 365.424 -379.643 367.088 -390.996 368.93 C-406.947 371.514 -422.929 373.828 -438.934 376.055 C-440.136 376.222 -441.339 376.39 -442.578 376.562 C-447.506 377.249 -452.434 377.934 -457.362 378.619 C-470.806 380.489 -484.246 382.389 -497.684 384.305 C-498.863 384.473 -500.042 384.641 -501.257 384.814 C-516.275 386.957 -531.275 389.186 -546.261 391.535 C-563.91 394.295 -581.602 396.747 -599.295 399.201 C-610.504 400.758 -621.709 402.332 -632.898 404.023 C-633.846 404.166 -634.794 404.308 -635.771 404.455 C-640.123 405.11 -644.475 405.774 -648.824 406.453 C-666.422 409.147 -679.421 409.385 -694.559 399.18 C-696.41 397.582 -696.41 397.582 -697.559 396.18 C-697.559 395.52 -697.559 394.86 -697.559 394.18 C-698.549 393.85 -699.539 393.52 -700.559 393.18 C-700.559 392.19 -700.559 391.2 -700.559 390.18 C-701.219 390.18 -701.879 390.18 -702.559 390.18 C-706.938 383.319 -707.436 376.638 -708.164 368.715 C-708.166 365.365 -708.166 365.365 -709.559 364.18 C-709.934 361.992 -709.934 361.992 -709.559 359.18 C-708.713 358.231 -707.867 357.282 -706.996 356.305 C-704.169 353.355 -704.169 353.355 -704.621 349.492 C-705.404 346.079 -705.404 346.079 -707.559 343.18 C-707.754 339.824 -707.754 339.824 -707.684 335.992 C-707.666 334.72 -707.648 333.448 -707.629 332.137 C-707.606 331.161 -707.582 330.185 -707.559 329.18 C-708.184 329.037 -708.809 328.894 -709.453 328.746 C-712.144 328.022 -712.986 327.502 -714.559 325.18 C-715.068 322.517 -715.297 319.884 -715.559 317.18 C-715.889 316.85 -716.219 316.52 -716.559 316.18 C-717.216 311.952 -717.548 307.689 -717.934 303.43 C-718.133 301.639 -718.133 301.639 -718.336 299.812 C-719.114 291.007 -719.114 291.007 -716.363 286.91 C-713.774 285.313 -712.279 284.556 -709.309 284.242 C-703.249 283.188 -698.18 279.895 -693.926 275.488 C-692.559 274.18 -692.559 274.18 -690.559 274.18 C-690.281 273.613 -690.004 273.045 -689.719 272.461 C-688.15 269.376 -686.409 266.396 -684.68 263.398 C-683.625 261.311 -683.021 259.463 -682.559 257.18 C-681.899 257.18 -681.239 257.18 -680.559 257.18 C-680.559 250.91 -680.559 244.64 -680.559 238.18 C-681.219 238.18 -681.879 238.18 -682.559 238.18 C-683.012 236.983 -683.466 235.787 -683.934 234.555 C-684.209 233.829 -684.485 233.103 -684.77 232.355 C-685.439 230.509 -686.01 228.628 -686.559 226.742 C-686.889 225.897 -687.219 225.051 -687.559 224.18 C-688.549 223.85 -689.539 223.52 -690.559 223.18 C-690.559 222.52 -690.559 221.86 -690.559 221.18 C-691.219 221.18 -691.879 221.18 -692.559 221.18 C-693.219 220.478 -693.879 219.777 -694.559 219.055 C-703.446 209.907 -714.037 208.224 -726.211 207.523 C-728.559 207.18 -728.559 207.18 -731.559 205.18 C-733.922 200.807 -734.213 196.108 -734.684 191.242 C-734.766 190.406 -734.849 189.57 -734.934 188.709 C-736.374 173.213 -736.374 173.213 -735.559 167.18 C-734.082 165.566 -734.082 165.566 -732.559 164.18 C-731.988 162.139 -731.988 162.139 -731.871 159.992 C-731.768 158.734 -731.665 157.476 -731.559 156.18 C-732.549 155.85 -733.539 155.52 -734.559 155.18 C-734.547 154.409 -734.535 153.638 -734.523 152.844 C-734.514 151.841 -734.505 150.838 -734.496 149.805 C-734.484 148.807 -734.473 147.809 -734.461 146.781 C-734.379 144.195 -734.379 144.195 -735.559 142.18 C-736.363 141.747 -737.167 141.313 -737.996 140.867 C-741.083 138.835 -741.46 137.646 -742.559 134.18 C-742.96 130.561 -742.883 126.943 -742.871 123.305 C-742.887 122.337 -742.903 121.369 -742.92 120.371 C-742.926 111.478 -740.483 104.895 -734.559 98.18 C-725.259 89.334 -713.389 86.523 -700.996 85.18 C-699.033 84.943 -697.07 84.705 -695.107 84.465 C-693.733 84.297 -692.358 84.131 -690.983 83.968 C-683.557 83.079 -676.157 82.017 -668.755 80.944 C-666.503 80.618 -664.251 80.294 -661.998 79.971 C-655.756 79.076 -649.514 78.174 -643.273 77.266 C-642.352 77.132 -641.432 76.999 -640.483 76.862 C-638.901 76.632 -637.319 76.401 -635.738 76.168 C-630.684 75.436 -625.619 74.833 -620.547 74.25 C-612.536 73.324 -604.557 72.227 -596.577 71.064 C-592.755 70.507 -588.932 69.957 -585.109 69.406 C-584.361 69.298 -583.613 69.19 -582.842 69.079 C-576.919 68.227 -570.99 67.412 -565.059 66.617 C-555.868 65.385 -546.697 64.029 -537.531 62.625 C-531.697 61.744 -525.863 60.97 -520 60.305 C-507.403 58.869 -494.86 57.019 -482.309 55.242 C-479.818 54.891 -477.327 54.54 -474.836 54.189 C-457.715 51.777 -440.595 49.349 -423.484 46.863 C-397.196 43.051 -397.196 43.051 -388.434 42.18 C-378.47 41.159 -368.587 39.569 -358.693 38.031 C-350.945 36.829 -343.194 35.707 -335.419 34.689 C-331.274 34.142 -327.133 33.573 -322.992 32.996 C-322.264 32.895 -321.536 32.793 -320.786 32.689 C-319.291 32.481 -317.795 32.272 -316.299 32.063 C-312.34 31.511 -308.381 30.961 -304.422 30.41 C-303.647 30.302 -302.873 30.195 -302.075 30.084 C-293.403 28.879 -284.728 27.695 -276.052 26.518 C-268.907 25.548 -261.762 24.574 -254.618 23.598 C-252.48 23.306 -250.341 23.014 -248.202 22.723 C-235.456 20.986 -222.717 19.22 -209.996 17.305 C-193.29 14.795 -176.544 12.57 -159.804 10.301 C-150.886 9.091 -141.972 7.858 -133.059 6.617 C-132.331 6.516 -131.604 6.415 -130.854 6.31 C-127.213 5.803 -123.571 5.296 -119.93 4.789 C-113.223 3.854 -106.516 2.923 -99.808 1.992 C-97.58 1.683 -95.351 1.373 -93.123 1.063 C-86.095 0.087 -79.067 -0.889 -72.039 -1.86 C-68.72 -2.319 -65.401 -2.779 -62.082 -3.239 C-60.5 -3.457 -58.918 -3.676 -57.335 -3.894 C-55.141 -4.197 -52.948 -4.501 -50.754 -4.805 C-49.506 -4.977 -48.259 -5.15 -46.973 -5.327 C-44.783 -5.643 -42.597 -5.988 -40.418 -6.367 C-26.562 -8.565 -11.734 -8.348 0 0 Z " fill="#FCF8F5" transform="translate(742.55859375,9.8203125)"/>
<path d="M0 0 C1.981 1.641 3.795 3.205 5.441 5.18 C5.441 5.84 5.441 6.5 5.441 7.18 C6.101 7.18 6.761 7.18 7.441 7.18 C7.771 8.5 8.101 9.82 8.441 11.18 C9.101 11.18 9.761 11.18 10.441 11.18 C13.888 19.719 14.975 26.993 14.441 36.18 C13.781 36.18 13.121 36.18 12.441 36.18 C11.418 40.582 11.359 43.13 13.441 47.18 C13.771 47.51 14.101 47.84 14.441 48.18 C14.602 52.344 14.424 56.127 13.441 60.18 C13.924 60.485 14.406 60.791 14.902 61.105 C18.952 64.039 20.908 66.333 21.879 71.305 C22.639 77.25 22.629 83.197 22.441 89.18 C23.101 89.18 23.761 89.18 24.441 89.18 C24.69 91.282 24.915 93.386 25.129 95.492 C25.257 96.664 25.384 97.836 25.516 99.043 C25.441 102.18 25.441 102.18 24.371 103.961 C21.677 105.662 18.925 106.441 15.879 107.367 C6.774 110.484 0.137 115.42 -5.559 123.18 C-5.889 124.17 -6.219 125.16 -6.559 126.18 C-7.219 126.18 -7.879 126.18 -8.559 126.18 C-10.87 140.367 -10.775 152.332 -2.547 164.516 C-1.559 166.18 -1.559 166.18 -1.559 168.18 C-0.723 168.551 -0.723 168.551 0.129 168.93 C2.441 170.18 2.441 170.18 4.754 172.055 C12.175 177.923 19.339 180.39 28.629 181.242 C37.198 182.058 37.198 182.058 39.441 183.18 C41.552 187.293 41.984 191.52 42.441 196.055 C42.857 200.123 43.356 203.882 44.484 207.828 C45.396 211.019 45.74 213.627 45.754 216.93 C45.771 217.853 45.787 218.776 45.805 219.727 C45.373 222.638 44.511 223.215 42.441 225.18 C42.633 230.225 42.633 230.225 45.441 234.18 C45.664 237.441 45.444 240.167 44.754 243.367 C44.132 246.136 44.132 246.136 45.629 247.867 C47.439 249.226 47.439 249.226 49.504 250.367 C52.952 253.593 53.312 258.334 53.631 262.876 C53.709 265.834 53.714 268.783 53.691 271.742 C53.699 272.744 53.707 273.747 53.715 274.779 C53.7 280.306 53.286 284.961 51.441 290.18 C50.781 290.18 50.121 290.18 49.441 290.18 C49.111 291.5 48.781 292.82 48.441 294.18 C47.781 294.18 47.121 294.18 46.441 294.18 C46.18 294.779 45.918 295.379 45.648 295.996 C41.999 302.597 34.009 305.647 27.254 308.086 C18.634 310.559 9.72 311.535 0.839 312.62 C-8.002 313.701 -16.806 314.93 -25.607 316.295 C-41.475 318.754 -57.364 320.995 -73.29 323.049 C-76.642 323.482 -79.995 323.918 -83.348 324.353 C-85.789 324.669 -88.231 324.98 -90.673 325.291 C-98.181 326.258 -105.646 327.325 -113.094 328.688 C-122.657 330.437 -132.273 331.638 -141.918 332.831 C-152.78 334.182 -163.578 335.805 -174.379 337.578 C-188.658 339.922 -202.968 341.955 -217.308 343.889 C-224.328 344.836 -231.346 345.8 -238.363 346.77 C-239.077 346.868 -239.791 346.967 -240.526 347.068 C-260.817 349.877 -281.058 353.003 -301.301 356.137 C-339.083 361.985 -339.083 361.985 -356.871 364.055 C-368.292 365.424 -379.643 367.088 -390.996 368.93 C-406.947 371.514 -422.929 373.828 -438.934 376.055 C-440.136 376.222 -441.339 376.39 -442.578 376.562 C-447.506 377.249 -452.434 377.934 -457.362 378.619 C-470.806 380.489 -484.246 382.389 -497.684 384.305 C-498.863 384.473 -500.042 384.641 -501.257 384.814 C-516.275 386.957 -531.275 389.186 -546.261 391.535 C-563.91 394.295 -581.602 396.747 -599.295 399.201 C-610.504 400.758 -621.709 402.332 -632.898 404.023 C-633.846 404.166 -634.794 404.308 -635.771 404.455 C-640.123 405.11 -644.475 405.774 -648.824 406.453 C-666.422 409.147 -679.421 409.385 -694.559 399.18 C-696.41 397.582 -696.41 397.582 -697.559 396.18 C-697.559 395.52 -697.559 394.86 -697.559 394.18 C-698.549 393.85 -699.539 393.52 -700.559 393.18 C-700.559 392.19 -700.559 391.2 -700.559 390.18 C-701.219 390.18 -701.879 390.18 -702.559 390.18 C-706.938 383.319 -707.436 376.638 -708.164 368.715 C-708.166 365.365 -708.166 365.365 -709.559 364.18 C-709.934 361.992 -709.934 361.992 -709.559 359.18 C-708.713 358.231 -707.867 357.282 -706.996 356.305 C-704.169 353.355 -704.169 353.355 -704.621 349.492 C-705.404 346.079 -705.404 346.079 -707.559 343.18 C-707.754 339.824 -707.754 339.824 -707.684 335.992 C-707.666 334.72 -707.648 333.448 -707.629 332.137 C-707.606 331.161 -707.582 330.185 -707.559 329.18 C-708.184 329.037 -708.809 328.894 -709.453 328.746 C-712.144 328.022 -712.986 327.502 -714.559 325.18 C-715.068 322.517 -715.297 319.884 -715.559 317.18 C-715.889 316.85 -716.219 316.52 -716.559 316.18 C-717.216 311.952 -717.548 307.689 -717.934 303.43 C-718.133 301.639 -718.133 301.639 -718.336 299.812 C-719.114 291.007 -719.114 291.007 -716.363 286.91 C-713.774 285.313 -712.279 284.556 -709.309 284.242 C-703.249 283.188 -698.18 279.895 -693.926 275.488 C-692.559 274.18 -692.559 274.18 -690.559 274.18 C-690.281 273.613 -690.004 273.045 -689.719 272.461 C-688.15 269.376 -686.409 266.396 -684.68 263.398 C-683.625 261.311 -683.021 259.463 -682.559 257.18 C-681.899 257.18 -681.239 257.18 -680.559 257.18 C-680.559 250.91 -680.559 244.64 -680.559 238.18 C-681.219 238.18 -681.879 238.18 -682.559 238.18 C-683.012 236.983 -683.466 235.787 -683.934 234.555 C-684.209 233.829 -684.485 233.103 -684.77 232.355 C-685.439 230.509 -686.01 228.628 -686.559 226.742 C-686.889 225.897 -687.219 225.051 -687.559 224.18 C-688.549 223.85 -689.539 223.52 -690.559 223.18 C-690.559 222.52 -690.559 221.86 -690.559 221.18 C-691.219 221.18 -691.879 221.18 -692.559 221.18 C-693.219 220.478 -693.879 219.777 -694.559 219.055 C-703.446 209.907 -714.037 208.224 -726.211 207.523 C-728.559 207.18 -728.559 207.18 -731.559 205.18 C-733.922 200.807 -734.213 196.108 -734.684 191.242 C-734.766 190.406 -734.849 189.57 -734.934 188.709 C-736.374 173.213 -736.374 173.213 -735.559 167.18 C-734.082 165.566 -734.082 165.566 -732.559 164.18 C-731.988 162.139 -731.988 162.139 -731.871 159.992 C-731.768 158.734 -731.665 157.476 -731.559 156.18 C-732.549 155.85 -733.539 155.52 -734.559 155.18 C-734.547 154.409 -734.535 153.638 -734.523 152.844 C-734.514 151.841 -734.505 150.838 -734.496 149.805 C-734.484 148.807 -734.473 147.809 -734.461 146.781 C-734.379 144.195 -734.379 144.195 -735.559 142.18 C-736.363 141.747 -737.167 141.313 -737.996 140.867 C-741.083 138.835 -741.46 137.646 -742.559 134.18 C-742.96 130.561 -742.883 126.943 -742.871 123.305 C-742.887 122.337 -742.903 121.369 -742.92 120.371 C-742.926 111.478 -740.483 104.895 -734.559 98.18 C-725.259 89.334 -713.389 86.523 -700.996 85.18 C-699.033 84.943 -697.07 84.705 -695.107 84.465 C-693.733 84.297 -692.358 84.131 -690.983 83.968 C-683.557 83.079 -676.157 82.017 -668.755 80.944 C-666.503 80.618 -664.251 80.294 -661.998 79.971 C-655.756 79.076 -649.514 78.174 -643.273 77.266 C-642.352 77.132 -641.432 76.999 -640.483 76.862 C-638.901 76.632 -637.319 76.401 -635.738 76.168 C-630.684 75.436 -625.619 74.833 -620.547 74.25 C-612.536 73.324 -604.557 72.227 -596.577 71.064 C-592.755 70.507 -588.932 69.957 -585.109 69.406 C-584.361 69.298 -583.613 69.19 -582.842 69.079 C-576.919 68.227 -570.99 67.412 -565.059 66.617 C-555.868 65.385 -546.697 64.029 -537.531 62.625 C-531.697 61.744 -525.863 60.97 -520 60.305 C-507.403 58.869 -494.86 57.019 -482.309 55.242 C-479.818 54.891 -477.327 54.54 -474.836 54.189 C-457.715 51.777 -440.595 49.349 -423.484 46.863 C-397.196 43.051 -397.196 43.051 -388.434 42.18 C-378.47 41.159 -368.587 39.569 -358.693 38.031 C-350.945 36.829 -343.194 35.707 -335.419 34.689 C-331.274 34.142 -327.133 33.573 -322.992 32.996 C-322.264 32.895 -321.536 32.793 -320.786 32.689 C-319.291 32.481 -317.795 32.272 -316.299 32.063 C-312.34 31.511 -308.381 30.961 -304.422 30.41 C-303.647 30.302 -302.873 30.195 -302.075 30.084 C-293.403 28.879 -284.728 27.695 -276.052 26.518 C-268.907 25.548 -261.762 24.574 -254.618 23.598 C-252.48 23.306 -250.341 23.014 -248.202 22.723 C-235.456 20.986 -222.717 19.22 -209.996 17.305 C-193.29 14.795 -176.544 12.57 -159.804 10.301 C-150.886 9.091 -141.972 7.858 -133.059 6.617 C-132.331 6.516 -131.604 6.415 -130.854 6.31 C-127.213 5.803 -123.571 5.296 -119.93 4.789 C-113.223 3.854 -106.516 2.923 -99.808 1.992 C-97.58 1.683 -95.351 1.373 -93.123 1.063 C-86.095 0.087 -79.067 -0.889 -72.039 -1.86 C-68.72 -2.319 -65.401 -2.779 -62.082 -3.239 C-60.5 -3.457 -58.918 -3.676 -57.335 -3.894 C-55.141 -4.197 -52.948 -4.501 -50.754 -4.805 C-49.506 -4.977 -48.259 -5.15 -46.973 -5.327 C-44.783 -5.643 -42.597 -5.988 -40.418 -6.367 C-26.562 -8.565 -11.734 -8.348 0 0 Z M-41.746 0.867 C-52.934 2.871 -64.154 4.314 -75.434 5.68 C-88.017 7.206 -100.547 8.863 -113.064 10.869 C-119.781 11.937 -126.488 12.776 -133.253 13.466 C-138.081 13.973 -142.842 14.702 -147.621 15.555 C-157.888 17.377 -168.242 18.531 -178.596 19.734 C-185.835 20.579 -193.046 21.514 -200.245 22.655 C-206.655 23.67 -213.076 24.607 -219.496 25.555 C-220.229 25.663 -220.962 25.771 -221.718 25.883 C-233.369 27.6 -245.032 29.201 -256.71 30.728 C-264.924 31.808 -273.118 32.996 -281.309 34.242 C-291.325 35.764 -301.351 36.996 -311.421 38.106 C-318.243 38.871 -324.981 39.852 -331.738 41.057 C-338.028 42.153 -344.341 42.896 -350.684 43.617 C-360.059 44.686 -369.342 46.038 -378.625 47.734 C-384.578 48.791 -390.516 49.516 -396.527 50.113 C-406.637 51.124 -416.647 52.614 -426.684 54.18 C-445.624 57.122 -445.624 57.122 -454.906 58.164 C-464.25 59.214 -473.539 60.596 -482.838 61.979 C-499.94 64.52 -517.051 66.978 -534.184 69.305 C-535.093 69.428 -536.003 69.552 -536.94 69.679 C-548.584 71.258 -560.233 72.797 -571.885 74.317 C-573.023 74.466 -573.023 74.466 -574.184 74.617 C-574.947 74.717 -575.711 74.816 -576.498 74.919 C-592.029 76.949 -607.541 79.113 -623.051 81.301 C-634.923 82.975 -646.797 84.628 -658.677 86.252 C-660.914 86.558 -663.152 86.864 -665.39 87.171 C-666.126 87.272 -666.862 87.373 -667.621 87.477 C-669.104 87.68 -670.588 87.884 -672.071 88.087 C-676.438 88.686 -680.805 89.28 -685.173 89.872 C-687.245 90.154 -689.317 90.438 -691.389 90.722 C-693.932 91.072 -696.475 91.418 -699.019 91.76 C-712.207 93.582 -723.492 96.196 -732.148 107.145 C-736.517 113.449 -736.821 118.507 -736.559 125.93 C-736.542 126.675 -736.525 127.421 -736.508 128.189 C-736.262 132.075 -735.865 133.863 -733.121 136.695 C-730.764 138.347 -730.764 138.347 -728.559 138.18 C-727.251 142.103 -727.583 145.582 -727.719 149.684 C-727.823 152.355 -727.823 152.355 -725.559 154.18 C-725.258 156.859 -725.258 156.859 -725.246 160.055 C-725.221 161.629 -725.221 161.629 -725.195 163.234 C-725.559 166.18 -725.559 166.18 -727.078 168.062 C-730.921 173.558 -728.008 183.36 -727.121 189.617 C-726.986 190.622 -726.852 191.627 -726.713 192.662 C-726.46 197.275 -726.46 197.275 -724.559 201.18 C-722.804 201.393 -721.049 201.6 -719.29 201.774 C-705.304 203.181 -694.009 207.888 -684.246 218.492 C-675.008 230.247 -672.732 241.474 -673.855 256.023 C-674.43 260.355 -675.914 263.805 -677.996 267.617 C-678.349 268.266 -678.702 268.915 -679.065 269.583 C-686.176 281.995 -697.529 287.595 -710.559 292.18 C-710.688 298.63 -710.244 304.898 -709.496 311.305 C-709.412 312.268 -709.327 313.231 -709.24 314.223 C-708.628 319.307 -708.009 322.355 -704 325.734 C-703.069 326.388 -703.069 326.388 -702.119 327.054 C-700.559 328.18 -700.559 328.18 -699.559 330.18 C-699.515 332.855 -699.513 335.506 -699.559 338.18 C-699.928 342.226 -699.928 342.226 -697.559 345.18 C-697.223 347.703 -697.223 347.703 -697.184 350.555 C-697.155 351.491 -697.127 352.426 -697.098 353.391 C-697.559 356.18 -697.559 356.18 -699.605 358.559 C-701.811 361.519 -701.908 363.08 -701.505 366.699 C-701.399 367.374 -701.293 368.048 -701.184 368.742 C-701.082 369.445 -700.98 370.148 -700.876 370.873 C-699.206 380.844 -694.759 390.012 -686.559 396.18 C-670.106 406.415 -647.82 399.599 -629.854 396.75 C-613.767 394.204 -597.66 391.925 -581.498 389.917 C-573.891 388.96 -566.386 387.819 -558.857 386.344 C-549.628 384.568 -540.306 383.386 -530.996 382.117 C-529.124 381.859 -527.253 381.601 -525.381 381.342 C-517.503 380.255 -509.623 379.185 -501.738 378.145 C-493.897 377.103 -486.071 375.962 -478.246 374.805 C-477.509 374.696 -476.772 374.587 -476.012 374.476 C-466.542 373.081 -457.079 371.652 -447.621 370.18 C-427.435 367.047 -407.215 364.059 -386.934 361.617 C-377.81 360.519 -368.751 359.142 -359.683 357.658 C-352.488 356.48 -345.287 355.402 -338.067 354.395 C-332.625 353.63 -327.19 352.824 -321.758 351.988 C-321.069 351.882 -320.379 351.776 -319.669 351.667 C-318.97 351.56 -318.271 351.452 -317.551 351.341 C-306.402 349.627 -295.26 347.956 -284.059 346.617 C-276.547 345.717 -269.085 344.664 -261.621 343.43 C-248.897 341.331 -236.137 339.5 -223.371 337.68 C-222.297 337.527 -221.223 337.373 -220.117 337.216 C-206.282 335.246 -192.44 333.342 -178.583 331.53 C-168.564 330.208 -158.582 328.678 -148.598 327.117 C-136.801 325.275 -124.982 323.605 -113.136 322.108 C-104.658 321.034 -96.23 319.828 -87.809 318.367 C-76.114 316.349 -64.374 314.692 -52.621 313.055 C-51.706 312.927 -50.79 312.798 -49.847 312.666 C-39.929 311.281 -30.009 309.949 -20.058 308.821 C-15.173 308.267 -10.32 307.594 -5.469 306.797 C-2.188 306.279 1.091 305.818 4.383 305.375 C25.527 302.582 25.527 302.582 41.816 289.598 C47.081 281.764 48.651 274.194 47.051 264.914 C45.904 259.921 44.967 256.401 40.941 253.18 C38.409 251.154 37.399 250.227 36.441 247.18 C36.268 243.941 36.125 241.158 37.129 238.055 C37.683 236.001 37.683 236.001 36.004 233.867 C33.959 230.35 33.94 228.193 34.441 224.18 C35.122 223.413 35.803 222.646 36.504 221.855 C38.723 219.327 38.723 219.327 38.5 216.191 C38.295 215.094 38.09 213.997 37.879 212.867 C37.662 211.65 37.446 210.433 37.223 209.18 C37.033 208.213 37.033 208.213 36.84 207.227 C36.42 205.069 36.037 202.907 35.66 200.742 C35.014 193.961 35.014 193.961 32.441 188.18 C30.485 188.045 28.526 187.948 26.566 187.867 C14.231 186.977 1.783 181.686 -6.824 172.566 C-14.961 161.369 -18.483 150.001 -17.559 136.18 C-15.511 123.424 -8.966 113.725 1.441 106.18 C5.013 104.217 8.638 102.634 12.441 101.18 C14.108 100.513 15.775 99.847 17.441 99.18 C17.037 91.596 16.495 84.495 14.441 77.18 C14.318 75.354 14.318 75.354 14.191 73.492 C13.149 68.887 11.198 67.919 7.441 65.18 C5.741 61.779 6.485 57.963 6.602 54.223 C6.436 51.07 5.655 49.061 4.441 46.18 C4.176 43.828 4.176 43.828 4.191 41.555 C4.186 40.799 4.181 40.044 4.176 39.266 C4.441 37.18 4.441 37.18 6.441 34.18 C7.511 26.487 6.17 19.296 1.883 12.828 C-3.797 5.767 -11.638 1.015 -20.559 -0.82 C-27.816 -1.288 -34.635 -0.49 -41.746 0.867 Z " fill="#5C5D5D" transform="translate(742.55859375,9.8203125)"/>
<path d="M0 0 C2.625 0.375 2.625 0.375 5 1 C8.081 13.737 9.474 26.909 2.629 38.551 C2.091 39.359 1.554 40.167 1 41 C0.617 41.612 0.234 42.225 -0.16 42.855 C-6.265 51.368 -17.41 54.821 -27.239 56.579 C-30.739 57.108 -34.241 57.596 -37.75 58.062 C-40.12 58.382 -42.49 58.706 -44.859 59.035 C-45.895 59.173 -46.932 59.311 -47.999 59.453 C-51.027 59.931 -51.027 59.931 -53.944 60.986 C-57.308 62.102 -60.526 62.663 -64.031 63.184 C-65.027 63.334 -65.027 63.334 -66.042 63.486 C-68.194 63.809 -70.347 64.124 -72.5 64.438 C-74.009 64.661 -75.518 64.885 -77.027 65.109 C-90.911 67.165 -104.811 69.074 -118.731 70.869 C-122.084 71.302 -125.436 71.738 -128.789 72.174 C-131.23 72.489 -133.672 72.8 -136.114 73.111 C-143.623 74.079 -151.087 75.145 -158.535 76.508 C-168.098 78.257 -177.714 79.459 -187.36 80.651 C-198.222 82.002 -209.019 83.625 -219.82 85.398 C-234.099 87.742 -248.409 89.776 -262.749 91.71 C-269.77 92.657 -276.788 93.621 -283.805 94.59 C-284.518 94.688 -285.232 94.787 -285.968 94.889 C-306.258 97.697 -326.499 100.823 -346.742 103.957 C-384.525 109.806 -384.525 109.806 -402.312 111.875 C-413.733 113.245 -425.084 114.908 -436.438 116.75 C-452.389 119.334 -468.37 121.648 -484.375 123.875 C-485.578 124.043 -486.78 124.21 -488.019 124.383 C-492.947 125.069 -497.875 125.755 -502.803 126.44 C-516.247 128.31 -529.687 130.209 -543.125 132.125 C-544.894 132.377 -544.894 132.377 -546.699 132.634 C-561.716 134.777 -576.716 137.006 -591.703 139.355 C-609.352 142.115 -627.043 144.567 -644.737 147.021 C-655.946 148.578 -667.15 150.152 -678.34 151.844 C-679.288 151.986 -680.235 152.129 -681.212 152.276 C-685.565 152.931 -689.916 153.594 -694.265 154.273 C-711.863 156.967 -724.862 157.205 -740 147 C-742.695 144.675 -743.79 142.461 -745.059 139.109 C-746.046 136.761 -746.046 136.761 -747.984 133.867 C-750.476 129.565 -751.139 125.249 -751.812 120.375 C-751.946 119.542 -752.079 118.71 -752.217 117.852 C-753.378 110.051 -753.378 110.051 -752 106 C-751.319 105.196 -750.639 104.391 -749.938 103.562 C-747.765 101.119 -747.765 101.119 -747.562 97.938 C-747.734 94.99 -747.734 94.99 -749.523 93.23 C-751.552 90.166 -751.231 88.006 -751.062 84.375 C-750.871 80.995 -750.871 80.995 -751 78 C-751.66 77.34 -752.32 76.68 -753 76 C-753 75.01 -753 74.02 -753 73 C-751.02 72.505 -751.02 72.505 -749 72 C-744.195 76.805 -744.195 76.805 -743.668 80.039 C-743.687 82.029 -743.84 84.016 -744 86 C-744.37 90.046 -744.37 90.046 -742 93 C-741.664 95.523 -741.664 95.523 -741.625 98.375 C-741.597 99.311 -741.568 100.247 -741.539 101.211 C-742 104 -742 104 -744.047 106.379 C-746.252 109.339 -746.349 110.9 -745.947 114.52 C-745.841 115.194 -745.734 115.868 -745.625 116.562 C-745.522 117.266 -745.419 117.97 -745.313 118.695 C-743.617 128.736 -739.429 137.002 -731.41 143.441 C-715.743 153.573 -692.523 146.302 -675.295 143.57 C-659.208 141.025 -643.102 138.746 -626.939 136.737 C-619.332 135.781 -611.827 134.64 -604.299 133.165 C-595.069 131.388 -585.747 130.206 -576.438 128.938 C-574.566 128.679 -572.694 128.421 -570.822 128.162 C-562.944 127.075 -555.064 126.005 -547.18 124.965 C-539.338 123.923 -531.513 122.782 -523.688 121.625 C-522.95 121.516 -522.213 121.408 -521.453 121.296 C-511.984 119.901 -502.52 118.472 -493.062 117 C-472.877 113.868 -452.657 110.879 -432.375 108.438 C-423.252 107.339 -414.193 105.963 -405.125 104.478 C-397.93 103.301 -390.729 102.222 -383.508 101.215 C-378.066 100.45 -372.631 99.645 -367.199 98.809 C-366.51 98.703 -365.821 98.597 -365.111 98.487 C-364.412 98.38 -363.712 98.272 -362.992 98.162 C-351.843 96.447 -340.702 94.776 -329.5 93.438 C-321.988 92.537 -314.526 91.485 -307.062 90.25 C-294.339 88.152 -281.579 86.32 -268.812 84.5 C-267.739 84.347 -266.665 84.194 -265.558 84.036 C-251.723 82.066 -237.882 80.162 -224.025 78.35 C-214.005 77.029 -204.023 75.499 -194.039 73.938 C-182.242 72.096 -170.423 70.426 -158.578 68.929 C-150.099 67.854 -141.671 66.648 -133.25 65.188 C-121.556 63.169 -109.815 61.513 -98.062 59.875 C-97.147 59.747 -96.232 59.619 -95.288 59.487 C-85.37 58.101 -75.451 56.77 -65.5 55.642 C-60.614 55.087 -55.762 54.415 -50.91 53.617 C-47.629 53.099 -44.35 52.639 -41.059 52.195 C-20.39 49.64 -20.39 49.64 -4.402 37.195 C0.565 29.419 2.312 21.874 0.574 12.77 C0.098 10.834 -0.448 8.916 -1 7 C-1.75 4.125 -1.75 4.125 -2 2 C-1.34 1.34 -0.68 0.68 0 0 Z " fill="#404040" transform="translate(788,262)"/>
<path d="M0 0 C0.33 0 0.66 0 1 0 C3.042 9.701 2.259 17.064 -2 26 C-2.33 24.68 -2.66 23.36 -3 22 C-3.891 22.797 -3.891 22.797 -4.801 23.609 C-6.044 24.669 -6.044 24.669 -7.312 25.75 C-8.113 26.446 -8.914 27.142 -9.738 27.859 C-20.246 34.756 -32.711 35.528 -44.875 37.125 C-46.738 37.378 -48.602 37.632 -50.465 37.887 C-53.176 38.258 -55.887 38.627 -58.599 38.991 C-64.542 39.789 -70.467 40.663 -76.386 41.621 C-79.008 42.001 -81.609 42.236 -84.25 42.438 C-88.621 42.8 -92.853 43.482 -97.164 44.285 C-108.24 46.292 -119.378 47.873 -130.518 49.479 C-134.098 49.996 -137.678 50.517 -141.258 51.039 C-152.057 52.607 -162.859 54.132 -173.684 55.516 C-184.696 56.926 -195.669 58.564 -206.643 60.245 C-212.408 61.128 -218.175 62.001 -223.941 62.875 C-225.114 63.053 -226.286 63.23 -227.494 63.414 C-239.449 65.224 -251.41 67 -263.375 68.75 C-264.369 68.895 -265.362 69.041 -266.386 69.191 C-280.088 71.191 -293.798 73.087 -307.544 74.759 C-312.375 75.354 -317.147 75.982 -321.91 76.988 C-328.404 78.355 -334.979 79.071 -341.562 79.875 C-351.345 81.092 -361.088 82.436 -370.812 84.062 C-379.21 85.463 -387.599 86.58 -396.062 87.5 C-405.359 88.513 -414.541 89.846 -423.752 91.449 C-431.626 92.807 -439.519 93.936 -447.438 95 C-456.44 96.21 -465.413 97.517 -474.375 99 C-485.255 100.795 -496.167 102.243 -507.107 103.605 C-517.834 104.945 -528.497 106.55 -539.149 108.395 C-554.378 111.019 -569.677 113.017 -585 115 C-605.746 117.701 -626.443 120.596 -647.086 124 C-660.151 126.146 -673.229 128 -686.37 129.605 C-691.772 130.275 -697.115 130.966 -702.441 132.098 C-714.566 134.655 -726.472 133.7 -737 127 C-737.99 127 -738.98 127 -740 127 C-740.868 125.257 -741.719 123.505 -742.562 121.75 C-743.038 120.775 -743.514 119.801 -744.004 118.797 C-745.035 115.901 -745.113 114.8 -744 112 C-743.539 112.592 -743.077 113.183 -742.602 113.793 C-736.609 121.053 -730.37 125.417 -721 127 C-711.214 127.639 -701.797 126.268 -692.188 124.625 C-689.494 124.175 -686.8 123.731 -684.105 123.289 C-683.442 123.179 -682.778 123.069 -682.094 122.956 C-676.57 122.057 -671.031 121.353 -665.475 120.684 C-660.794 120.116 -656.193 119.387 -651.562 118.5 C-645.121 117.308 -638.688 116.417 -632.177 115.704 C-627.638 115.205 -623.138 114.579 -618.625 113.875 C-612.679 112.994 -607.005 112.838 -601 113 C-601.33 106.73 -601.66 100.46 -602 94 C-600.68 94 -599.36 94 -598 94 C-597.655 95.33 -597.325 96.665 -597 98 C-596.814 98.743 -596.629 99.485 -596.438 100.25 C-595.861 103.876 -595.938 107.329 -596 111 C-576.597 108.084 -576.597 108.084 -557.27 104.711 C-552.239 103.825 -547.17 103.208 -542.106 102.544 C-535.146 101.629 -528.199 100.621 -521.25 99.625 C-520.492 99.517 -519.735 99.408 -518.954 99.297 C-507.953 97.725 -496.96 96.105 -485.97 94.454 C-479.991 93.565 -474.008 92.723 -468.016 91.934 C-467.004 91.8 -467.004 91.8 -465.971 91.664 C-462.705 91.235 -459.438 90.811 -456.171 90.394 C-451.192 89.748 -446.255 89.102 -441.348 88.035 C-432.316 86.136 -423.054 85.343 -413.898 84.253 C-403.855 83.051 -393.863 81.746 -383.901 79.98 C-379.87 79.272 -375.897 78.761 -371.812 78.5 C-367.583 78.208 -363.586 77.567 -359.438 76.688 C-344.776 73.61 -329.837 71.53 -314.938 70 C-304.566 68.929 -294.296 67.239 -283.998 65.623 C-276.212 64.406 -268.418 63.234 -260.625 62.062 C-259.771 61.934 -258.916 61.805 -258.036 61.673 C-245.304 59.76 -232.562 57.944 -219.806 56.2 C-206.741 54.412 -193.703 52.465 -180.667 50.482 C-169.857 48.84 -159.05 47.328 -148.191 46.042 C-140.346 45.094 -132.573 43.814 -124.785 42.482 C-112.088 40.314 -99.354 38.513 -86.565 36.979 C-74.745 35.557 -62.997 33.795 -51.256 31.834 C-45.49 30.874 -39.736 29.934 -33.934 29.223 C-23.327 27.911 -14.697 26.371 -7.125 18.125 C-3.111 12.222 -0.596 7.156 0 0 Z " fill="#CFCCC9" transform="translate(788,271)"/>
<path d="M0 0 C2 2 2 2 2.438 4.25 C1.797 8.274 -0.247 10.04 -3 13 C-6.895 12.367 -10.152 11.166 -13.75 9.562 C-24.955 4.835 -35.821 2.91 -47.625 6.938 C-59.048 11.808 -66.492 20.393 -71.129 31.77 C-74.306 43.553 -72.445 56.234 -67 67 C-61.426 76.187 -53.214 82.654 -43 86 C-39.355 86.536 -35.804 86.574 -32.125 86.5 C-31.154 86.487 -30.183 86.474 -29.183 86.461 C-16.499 86.102 -7.718 81.968 1.105 72.816 C3 71 3 71 5.375 70.438 C9.29 71.277 11.267 73.14 14 76 C14.688 78.438 14.688 78.438 14 81 C7.007 91.851 -6.596 98.692 -18.847 101.603 C-33.166 104.243 -49.683 102.242 -62.125 94.562 C-63.768 93.4 -65.396 92.215 -67 91 C-68.052 90.257 -69.104 89.515 -70.188 88.75 C-82.643 76.571 -88.801 60.854 -89.438 43.562 C-88.989 27.574 -82.511 13.98 -71 3 C-49.913 -13.991 -22.786 -14.769 0 0 Z " fill="#5E5F5F" transform="translate(370,161)"/>
<path d="M0 0 C0.64 0.279 1.279 0.557 1.938 0.844 C27.493 12.132 46.1 33.642 57 59 C58.221 62.3 59.184 65.58 60 69 C60.191 69.682 60.382 70.364 60.578 71.066 C67.196 95.223 62.842 123.889 50.52 145.52 C41.797 159.944 30.782 171.386 17 181 C16.181 181.574 15.363 182.147 14.52 182.738 C-7.453 196.982 -37.149 201.03 -62.617 196.746 C-90.152 190.673 -116.607 174.081 -132.137 150.255 C-134.607 146.261 -136.834 142.165 -139 138 C-139.398 137.256 -139.797 136.512 -140.207 135.746 C-145.685 124.593 -148.755 111.361 -149 99 C-149.062 97.656 -149.125 96.312 -149.188 94.969 C-150.121 68.221 -140.932 43.363 -122.691 23.684 C-119.598 20.604 -116.39 17.75 -113 15 C-112.126 14.288 -111.252 13.577 -110.352 12.844 C-77.977 -12.5 -37.19 -16.541 0 0 Z M-72 -1 C-73.017 -0.71 -74.034 -0.42 -75.082 -0.121 C-100.74 7.751 -121.212 25.595 -134.055 48.916 C-146.063 71.622 -146.987 97.781 -139.965 122.176 C-135.687 135.6 -128.671 147.747 -119 158 C-118.331 158.728 -118.331 158.728 -117.649 159.47 C-100.192 178.383 -76.445 191.211 -50.473 192.902 C-49.249 192.951 -49.249 192.951 -48 193 C-47.029 193.063 -46.059 193.126 -45.059 193.191 C-16.54 194.235 9.161 182.97 30 164 C32.53 161.465 34.803 158.827 37 156 C37.561 155.287 38.121 154.574 38.699 153.84 C54.116 133.087 60.787 107.498 57.535 81.855 C53.526 55.696 39.165 32.724 18.438 16.5 C-0.916 2.487 -21.328 -4.44 -45.375 -4.312 C-46.468 -4.308 -47.56 -4.304 -48.686 -4.3 C-56.842 -4.186 -64.165 -3.386 -72 -1 Z " fill="#606161" transform="translate(377,114)"/>
<path d="M0 0 C1.981 1.641 3.795 3.205 5.441 5.18 C5.441 5.84 5.441 6.5 5.441 7.18 C6.101 7.18 6.761 7.18 7.441 7.18 C7.936 9.16 7.936 9.16 8.441 11.18 C9.101 11.18 9.761 11.18 10.441 11.18 C13.888 19.719 14.975 26.993 14.441 36.18 C13.781 36.18 13.121 36.18 12.441 36.18 C11.418 40.582 11.359 43.13 13.441 47.18 C13.771 47.51 14.101 47.84 14.441 48.18 C14.602 52.344 14.424 56.127 13.441 60.18 C13.924 60.485 14.406 60.791 14.902 61.105 C18.952 64.039 20.908 66.333 21.879 71.305 C22.639 77.25 22.629 83.197 22.441 89.18 C23.101 89.18 23.761 89.18 24.441 89.18 C24.69 91.282 24.915 93.386 25.129 95.492 C25.257 96.664 25.384 97.836 25.516 99.043 C25.441 102.18 25.441 102.18 24.371 103.961 C21.677 105.662 18.925 106.441 15.879 107.367 C6.774 110.484 0.137 115.42 -5.559 123.18 C-5.889 124.17 -6.219 125.16 -6.559 126.18 C-7.219 126.18 -7.879 126.18 -8.559 126.18 C-10.87 140.367 -10.775 152.332 -2.547 164.516 C-1.559 166.18 -1.559 166.18 -1.559 168.18 C-1.002 168.427 -0.445 168.675 0.129 168.93 C2.441 170.18 2.441 170.18 4.754 172.055 C12.175 177.923 19.339 180.39 28.629 181.242 C37.198 182.058 37.198 182.058 39.441 183.18 C41.552 187.293 41.984 191.52 42.441 196.055 C42.857 200.123 43.356 203.882 44.484 207.828 C45.396 211.019 45.74 213.627 45.754 216.93 C45.771 217.853 45.787 218.776 45.805 219.727 C45.373 222.638 44.511 223.215 42.441 225.18 C42.633 230.225 42.633 230.225 45.441 234.18 C45.664 237.441 45.444 240.167 44.754 243.367 C44.132 246.136 44.132 246.136 45.629 247.867 C47.439 249.226 47.439 249.226 49.504 250.367 C52.952 253.593 53.312 258.334 53.631 262.876 C53.709 265.834 53.714 268.783 53.691 271.742 C53.703 273.246 53.703 273.246 53.715 274.779 C53.7 280.306 53.286 284.961 51.441 290.18 C50.781 290.18 50.121 290.18 49.441 290.18 C49.111 291.5 48.781 292.82 48.441 294.18 C47.781 294.18 47.121 294.18 46.441 294.18 C46.18 294.779 45.918 295.379 45.648 295.996 C42.004 302.59 34.025 305.64 27.277 308.078 C16.669 311.124 5.474 312.722 -5.559 312.18 C-5.559 311.85 -5.559 311.52 -5.559 311.18 C-4.804 311.079 -4.048 310.979 -3.271 310.876 C0.219 310.406 3.705 309.918 7.191 309.43 C8.379 309.272 9.566 309.115 10.789 308.953 C22.711 307.259 36.118 304.778 44.223 295.039 C49.114 287.99 51.965 281.536 51.754 272.93 C51.746 272.191 51.737 271.453 51.729 270.692 C51.599 264.725 50.846 258.987 49.441 253.18 C48.699 253.345 47.956 253.51 47.191 253.68 C44.441 254.18 44.441 254.18 40.441 254.18 C36.016 249.375 35.218 246.665 35.441 240.18 C35.668 239.478 35.895 238.777 36.129 238.055 C36.683 236.001 36.683 236.001 35.004 233.867 C32.959 230.35 32.94 228.193 33.441 224.18 C34.122 223.413 34.803 222.646 35.504 221.855 C37.723 219.327 37.723 219.327 37.5 216.191 C37.295 215.094 37.09 213.997 36.879 212.867 C36.556 211.044 36.556 211.044 36.227 209.184 C35.965 207.849 35.703 206.514 35.441 205.18 C35.167 203.689 34.895 202.198 34.625 200.707 C33.922 196.859 33.189 193.019 32.441 189.18 C31.631 189.154 30.82 189.128 29.984 189.102 C15.649 188.367 2.462 183.365 -7.602 172.789 C-15.967 161.635 -19.489 150.077 -18.559 136.18 C-16.778 125.087 -11.335 115.256 -2.559 108.18 C3.401 103.982 9.421 101.113 16.441 99.18 C16.037 91.596 15.495 84.495 13.441 77.18 C13.359 75.963 13.276 74.746 13.191 73.492 C12.149 68.887 10.198 67.919 6.441 65.18 C4.741 61.779 5.485 57.963 5.602 54.223 C5.436 51.07 4.655 49.061 3.441 46.18 C3.176 43.828 3.176 43.828 3.191 41.555 C3.184 40.422 3.184 40.422 3.176 39.266 C3.441 37.18 3.441 37.18 5.441 34.18 C6.491 26.626 5.153 19.5 1.105 13.051 C-3.61 6.99 -9.66 4.235 -16.559 1.18 C-17.896 0.521 -19.231 -0.142 -20.559 -0.82 C-20.229 -1.81 -19.899 -2.8 -19.559 -3.82 C-21.496 -3.847 -23.434 -3.867 -25.371 -3.883 C-26.99 -3.9 -26.99 -3.9 -28.641 -3.918 C-31.624 -3.957 -31.624 -3.957 -34.559 -2.82 C-36.746 -3.258 -36.746 -3.258 -38.559 -3.82 C-38.559 -3.16 -38.559 -2.5 -38.559 -1.82 C-39.516 -1.832 -40.474 -1.844 -41.461 -1.855 C-51.533 -1.937 -61.512 -1.517 -71.559 -0.82 C-71.559 -1.15 -71.559 -1.48 -71.559 -1.82 C-70.742 -1.936 -69.925 -2.052 -69.083 -2.172 C-66.031 -2.605 -62.978 -3.04 -59.925 -3.474 C-57.963 -3.754 -56.001 -4.032 -54.039 -4.311 C-52.795 -4.488 -51.551 -4.665 -50.27 -4.848 C-48.557 -5.091 -48.557 -5.091 -46.81 -5.34 C-44.685 -5.654 -42.564 -5.994 -40.448 -6.364 C-26.577 -8.554 -11.749 -8.359 0 0 Z " fill="#363737" transform="translate(742.55859375,9.8203125)"/>
<path d="M0 0 C3.416 1.212 5.314 2.797 7 6 C7.26 8.687 7.142 11.309 7 14 C6.63 18.046 6.63 18.046 9 21 C9.336 23.523 9.336 23.523 9.375 26.375 C9.403 27.311 9.432 28.247 9.461 29.211 C9 32 9 32 6.953 34.379 C4.748 37.339 4.651 38.9 5.053 42.52 C5.159 43.194 5.266 43.868 5.375 44.562 C5.478 45.266 5.581 45.97 5.687 46.695 C7.383 56.736 11.571 65.002 19.59 71.441 C35.257 81.573 58.477 74.302 75.705 71.57 C91.792 69.025 107.898 66.746 124.061 64.737 C131.668 63.781 139.173 62.64 146.701 61.165 C155.931 59.388 165.253 58.206 174.562 56.938 C176.434 56.679 178.306 56.421 180.178 56.162 C186.889 55.236 193.601 54.312 200.319 53.431 C206.524 52.617 212.703 51.744 218.874 50.706 C226.763 49.399 234.042 48.485 242 50 C242 50.66 242 51.32 242 52 C246.95 52 251.9 52 257 52 C257 52.33 257 52.66 257 53 C256.19 53.119 255.381 53.237 254.546 53.359 C246.826 54.491 239.106 55.623 231.386 56.756 C227.42 57.338 223.453 57.92 219.486 58.501 C196.535 61.86 196.535 61.86 173.615 65.425 C169.083 66.146 164.545 66.806 160 67.438 C150.815 68.731 141.639 70.084 132.467 71.467 C125.632 72.488 118.79 73.44 111.941 74.363 C103.293 75.531 94.657 76.771 86.023 78.043 C82.374 78.577 78.724 79.111 75.074 79.644 C72.59 80.009 70.106 80.377 67.623 80.747 C63.966 81.291 60.307 81.824 56.648 82.355 C55.554 82.521 54.46 82.687 53.333 82.857 C36.907 85.213 24.96 84.411 11 75 C8.305 72.675 7.21 70.461 5.941 67.109 C4.954 64.761 4.954 64.761 3.016 61.867 C0.524 57.565 -0.139 53.249 -0.812 48.375 C-0.946 47.542 -1.079 46.71 -1.217 45.852 C-2.378 38.051 -2.378 38.051 -1 34 C-0.319 33.196 0.361 32.391 1.062 31.562 C3.235 29.119 3.235 29.119 3.438 25.938 C3.266 22.99 3.266 22.99 1.477 21.23 C-0.552 18.166 -0.231 16.006 -0.062 12.375 C0.129 8.995 0.129 8.995 0 6 C-0.66 5.34 -1.32 4.68 -2 4 C-2 3.01 -2 2.02 -2 1 C-1.34 0.67 -0.68 0.34 0 0 Z " fill="#4C4D4E" transform="translate(37,334)"/>
<path d="M0 0 C0.33 0 0.66 0 1 0 C1.33 1.98 1.66 3.96 2 6 C2.959 5.01 2.959 5.01 3.938 4 C6 2 6 2 7 2 C7.003 2.603 7.005 3.207 7.008 3.828 C7.129 6.341 7.34 8.569 8 11 C10.831 13.443 10.831 13.443 14 15 C16.29 18.434 16.171 19.559 16 23.562 C15.833 26.43 15.833 26.43 16 29 C16.66 29.66 17.32 30.32 18 31 C18.301 33.68 18.301 33.68 18.312 36.875 C18.329 37.924 18.346 38.974 18.363 40.055 C18 43 18 43 16.48 44.883 C12.613 50.414 15.585 60.219 16.5 66.5 C16.715 68.02 16.715 68.02 16.934 69.57 C17.284 72.048 17.64 74.524 18 77 C19.039 77.098 20.078 77.196 21.148 77.297 C37.075 78.938 49.957 83.955 60.438 96.805 C69.06 108.92 71.371 120.294 69.44 134.919 C68.693 138.452 67.124 141.428 65.375 144.562 C64.833 145.546 64.833 145.546 64.281 146.549 C57.871 157.812 47.392 165.238 35 169 C34.01 169 33.02 169 32 169 C32.522 173.237 33.055 177.473 33.599 181.708 C33.783 183.149 33.963 184.59 34.14 186.032 C34.395 188.103 34.661 190.173 34.93 192.242 C35.087 193.489 35.244 194.735 35.406 196.019 C35.734 199.104 35.734 199.104 38 201 C37.01 201.33 36.02 201.66 35 202 C35.495 202.69 35.99 203.379 36.5 204.09 C38.297 207.576 38.216 209.678 38 213.562 C37.736 218.321 37.883 220.382 41 224 C41.5 226.875 41.5 226.875 41 230 C39.733 231.296 39.733 231.296 38.441 232.617 C36.151 235.262 35.662 236.899 35.809 240.391 C35.985 242.014 36.196 243.635 36.438 245.25 C36.546 246.092 36.654 246.935 36.766 247.803 C37.761 254.809 39.259 261.418 43.629 267.129 C45 269 45 269 45 271 C44.01 270.67 43.02 270.34 42 270 C42 269.01 42 268.02 42 267 C41.34 267 40.68 267 40 267 C35.621 260.139 35.123 253.458 34.395 245.535 C34.393 242.185 34.393 242.185 33 241 C32.625 238.812 32.625 238.812 33 236 C33.846 235.051 34.691 234.102 35.562 233.125 C38.389 230.176 38.389 230.176 37.938 226.312 C37.155 222.899 37.155 222.899 35 220 C34.805 216.645 34.805 216.645 34.875 212.812 C34.893 211.54 34.911 210.268 34.93 208.957 C34.953 207.981 34.976 207.005 35 206 C34.375 205.857 33.75 205.714 33.105 205.566 C30.415 204.843 29.573 204.322 28 202 C27.491 199.337 27.262 196.704 27 194 C26.67 193.67 26.34 193.34 26 193 C25.343 188.773 25.011 184.509 24.625 180.25 C24.426 178.459 24.426 178.459 24.223 176.633 C23.445 167.827 23.445 167.827 26.195 163.73 C28.784 162.133 30.279 161.376 33.25 161.062 C39.309 160.009 44.378 156.716 48.633 152.309 C50 151 50 151 52 151 C52.277 150.433 52.554 149.866 52.84 149.281 C54.409 146.196 56.149 143.216 57.879 140.219 C58.934 138.131 59.538 136.284 60 134 C60.66 134 61.32 134 62 134 C62 127.73 62 121.46 62 115 C61.34 115 60.68 115 60 115 C59.546 113.804 59.093 112.608 58.625 111.375 C58.349 110.649 58.073 109.924 57.789 109.176 C57.12 107.33 56.549 105.448 56 103.562 C55.505 102.294 55.505 102.294 55 101 C54.01 100.67 53.02 100.34 52 100 C52 99.34 52 98.68 52 98 C51.34 98 50.68 98 50 98 C49.34 97.299 48.68 96.597 48 95.875 C39.113 86.727 28.521 85.044 16.348 84.344 C14 84 14 84 11 82 C8.636 77.628 8.346 72.928 7.875 68.062 C7.792 67.227 7.71 66.391 7.624 65.529 C6.184 50.033 6.184 50.033 7 44 C8.477 42.387 8.477 42.387 10 41 C10.57 38.959 10.57 38.959 10.688 36.812 C10.842 34.925 10.842 34.925 11 33 C10.01 32.67 9.02 32.34 8 32 C8.012 31.229 8.023 30.458 8.035 29.664 C8.044 28.661 8.053 27.658 8.062 26.625 C8.074 25.627 8.086 24.63 8.098 23.602 C8.18 21.016 8.18 21.016 7 19 C6.196 18.567 5.391 18.134 4.562 17.688 C1.462 15.646 1.075 14.498 0 11 C-0.195 8.105 -0.195 8.105 -0.125 5.188 C-0.107 4.212 -0.089 3.236 -0.07 2.23 C-0.047 1.494 -0.024 0.758 0 0 Z " fill="#3C3D3D" transform="translate(0,133)"/>
<path d="M0 0 C-0.33 0.99 -0.66 1.98 -1 3 C-9.68 4.913 -18.45 6.115 -27.25 7.312 C-28.85 7.533 -30.45 7.753 -32.05 7.973 C-43.851 9.593 -55.66 11.141 -67.472 12.681 C-83.158 14.729 -98.825 16.911 -114.49 19.121 C-126.363 20.795 -138.238 22.449 -150.118 24.072 C-152.356 24.378 -154.594 24.684 -156.831 24.991 C-157.936 25.143 -157.936 25.143 -159.062 25.297 C-160.546 25.501 -162.029 25.704 -163.513 25.907 C-167.879 26.506 -172.247 27.101 -176.614 27.693 C-178.687 27.974 -180.759 28.258 -182.831 28.543 C-185.373 28.892 -187.917 29.238 -190.46 29.58 C-202.957 31.307 -214.664 33.611 -222.82 44.164 C-226.998 50.665 -227.595 57.408 -228 65 C-228.66 64.67 -229.32 64.34 -230 64 C-230.33 65.65 -230.66 67.3 -231 69 C-234.882 63.178 -234.547 55.809 -234 49 C-231.183 40.103 -225.868 33.841 -218 29 C-209.637 24.775 -201.695 23.004 -192.438 22 C-190.474 21.763 -188.511 21.526 -186.548 21.285 C-185.174 21.117 -183.799 20.952 -182.424 20.788 C-174.998 19.899 -167.598 18.838 -160.197 17.765 C-157.945 17.439 -155.692 17.115 -153.44 16.792 C-147.197 15.896 -140.956 14.994 -134.715 14.086 C-133.794 13.953 -132.873 13.819 -131.924 13.682 C-130.342 13.453 -128.761 13.222 -127.179 12.988 C-122.844 12.36 -118.502 11.822 -114.15 11.323 C-107.604 10.573 -101.079 9.756 -94.562 8.781 C-93.867 8.677 -93.172 8.573 -92.456 8.466 C-91.034 8.253 -89.611 8.04 -88.189 7.827 C-76.101 6.022 -64.099 4.541 -51.896 3.743 C-44.425 3.217 -37.129 2.142 -29.75 0.875 C-19.657 -0.853 -10.139 -2.243 0 0 Z " fill="#515250" transform="translate(234,73)"/>
<path d="M0 0 C1.535 0.014 1.535 0.014 3.102 0.027 C3.852 0.039 4.602 0.051 5.375 0.062 C4.396 2.457 4.396 2.457 2.375 5.062 C-0.527 5.903 -2.999 6.4 -5.965 6.758 C-6.801 6.877 -7.637 6.996 -8.499 7.118 C-11.184 7.496 -13.873 7.842 -16.562 8.188 C-18.307 8.426 -20.051 8.667 -21.795 8.91 C-25.291 9.395 -28.789 9.868 -32.289 10.333 C-38.616 11.184 -44.926 12.15 -51.233 13.142 C-52.014 13.263 -52.795 13.383 -53.6 13.507 C-54.283 13.615 -54.966 13.722 -55.669 13.833 C-57.625 14.062 -57.625 14.062 -61.625 14.062 C-61.625 14.723 -61.625 15.382 -61.625 16.062 C-62.395 16.152 -63.166 16.242 -63.959 16.334 C-80.32 18.261 -96.61 20.45 -112.875 23.062 C-114.494 23.321 -116.114 23.58 -117.733 23.839 C-120.886 24.343 -124.038 24.848 -127.19 25.353 C-128.669 25.59 -130.147 25.826 -131.625 26.062 C-132.302 26.171 -132.979 26.279 -133.677 26.391 C-150.353 29.054 -166.73 30.79 -183.625 31.062 C-183.955 30.402 -184.285 29.743 -184.625 29.062 C-186.642 27.929 -186.642 27.929 -188.625 27.062 C-174.979 24.158 -161.317 21.857 -147.5 19.935 C-144.391 19.502 -141.283 19.061 -138.176 18.619 C-126.736 17.001 -115.285 15.507 -103.817 14.097 C-96.831 13.231 -89.879 12.237 -82.938 11.062 C-74.691 9.707 -66.441 8.436 -58.164 7.282 C-52.547 6.493 -46.938 5.66 -41.332 4.801 C-40.601 4.689 -39.871 4.577 -39.118 4.462 C-35.468 3.903 -31.819 3.342 -28.17 2.776 C-9.447 -0.11 -9.447 -0.11 0 0 Z " fill="#494A4B" transform="translate(462.625,355.9375)"/>
<path d="M0 0 C2.625 0.375 2.625 0.375 5 1 C8.081 13.737 9.474 26.909 2.629 38.551 C1.823 39.763 1.823 39.763 1 41 C0.617 41.612 0.234 42.225 -0.16 42.855 C-6.265 51.368 -17.41 54.821 -27.239 56.579 C-30.739 57.108 -34.241 57.596 -37.75 58.062 C-40.12 58.382 -42.49 58.706 -44.859 59.035 C-45.895 59.173 -46.932 59.311 -47.999 59.453 C-51.139 60.025 -53.976 60.991 -57 62 C-59.241 62.442 -61.493 62.834 -63.75 63.184 C-64.393 63.284 -65.036 63.384 -65.698 63.487 C-67.798 63.811 -69.899 64.125 -72 64.438 C-72.723 64.547 -73.445 64.656 -74.19 64.768 C-86.022 66.549 -97.859 67.935 -109.775 69.011 C-116.854 69.652 -123.847 70.513 -130.868 71.627 C-135.255 72.149 -139.728 72.25 -144 71 C-145.77 69.449 -145.77 69.449 -147 68 C-126.626 63.11 -105.715 60.792 -84.955 58.18 C-72.501 56.611 -60.093 54.89 -47.699 52.891 C-43.937 52.286 -40.177 51.757 -36.395 51.297 C-24.849 49.859 -14.446 48.015 -6 39.25 C-0.296 31.914 2.042 24.231 1 15 C0.477 12.263 -0.226 9.686 -1 7 C-1.75 4.125 -1.75 4.125 -2 2 C-1.34 1.34 -0.68 0.68 0 0 Z " fill="#3B3C3C" transform="translate(788,262)"/>
<path d="M0 0 C3.416 1.212 5.314 2.797 7 6 C7.26 8.687 7.142 11.309 7 14 C6.63 18.046 6.63 18.046 9 21 C9.336 23.523 9.336 23.523 9.375 26.375 C9.403 27.311 9.432 28.247 9.461 29.211 C9 32 9 32 6.953 34.379 C4.748 37.339 4.651 38.9 5.053 42.52 C5.159 43.194 5.266 43.868 5.375 44.562 C5.478 45.266 5.581 45.97 5.687 46.695 C7.383 56.736 11.571 65.002 19.59 71.441 C33.165 80.22 51.419 75.407 66.336 72.977 C67.446 72.796 68.555 72.615 69.698 72.429 C71.903 72.066 74.106 71.697 76.307 71.321 C81.614 70.438 86.619 69.771 92 70 C92.33 70.99 92.66 71.98 93 73 C94.65 73 96.3 73 98 73 C97.67 73.66 97.34 74.32 97 75 C94.742 75.562 94.742 75.562 91.875 76 C88.754 76.484 85.834 77.05 82.804 77.955 C78.917 79.023 75.064 79.719 71.082 80.289 C70.344 80.397 69.605 80.505 68.844 80.617 C67.289 80.843 65.733 81.066 64.177 81.287 C61.835 81.622 59.495 81.971 57.154 82.32 C39.56 84.884 26.221 85.262 11 75 C8.305 72.675 7.21 70.461 5.941 67.109 C4.954 64.761 4.954 64.761 3.016 61.867 C0.524 57.565 -0.139 53.249 -0.812 48.375 C-0.946 47.542 -1.079 46.71 -1.217 45.852 C-2.378 38.051 -2.378 38.051 -1 34 C-0.319 33.196 0.361 32.391 1.062 31.562 C3.235 29.119 3.235 29.119 3.438 25.938 C3.266 22.99 3.266 22.99 1.477 21.23 C-0.552 18.166 -0.231 16.006 -0.062 12.375 C0.129 8.995 0.129 8.995 0 6 C-0.66 5.34 -1.32 4.68 -2 4 C-2 3.01 -2 2.02 -2 1 C-1.34 0.67 -0.68 0.34 0 0 Z " fill="#464747" transform="translate(37,334)"/>
<path d="M0 0 C0.99 1.98 0.99 1.98 2 4 C-0.349 6.349 -1.153 6.359 -4.367 6.746 C-5.725 6.916 -5.725 6.916 -7.11 7.09 C-8.094 7.205 -9.077 7.319 -10.09 7.438 C-11.104 7.563 -12.118 7.689 -13.163 7.818 C-16.421 8.22 -19.679 8.611 -22.938 9 C-26.164 9.391 -29.39 9.785 -32.615 10.182 C-34.623 10.428 -36.631 10.671 -38.639 10.91 C-44.296 11.598 -49.874 12.494 -55.474 13.545 C-58.851 14.153 -62.216 14.574 -65.625 14.965 C-66.996 15.125 -68.367 15.286 -69.738 15.446 C-70.783 15.566 -70.783 15.566 -71.85 15.689 C-81.885 16.848 -91.906 18.036 -101.875 19.688 C-111.637 21.301 -121.103 22.193 -131 22 C-130.67 20.35 -130.34 18.7 -130 17 C-129.007 16.879 -128.015 16.758 -126.992 16.633 C-125.62 16.464 -124.247 16.294 -122.875 16.125 C-121.906 16.007 -121.906 16.007 -120.918 15.887 C-115.23 15.182 -109.56 14.369 -103.887 13.553 C-96.783 12.542 -89.673 11.585 -82.562 10.625 C-81.763 10.517 -80.964 10.408 -80.141 10.297 C-71.611 9.141 -63.08 7.999 -54.539 6.926 C-53.877 6.842 -53.214 6.759 -52.531 6.673 C-51.879 6.591 -51.227 6.509 -50.555 6.424 C-38.869 4.953 -27.245 3.338 -15.657 1.219 C-10.34 0.271 -5.402 -0.177 0 0 Z " fill="#5A5B5B" transform="translate(614,169)"/>
<path d="M0 0 C0.562 1.937 0.562 1.937 1 4 C-0.561 5.561 -2.26 5.384 -4.426 5.648 C-5.357 5.765 -6.289 5.882 -7.249 6.002 C-8.26 6.125 -9.271 6.248 -10.312 6.375 C-17.951 7.337 -25.576 8.342 -33.188 9.5 C-33.995 9.623 -34.803 9.746 -35.635 9.872 C-37.264 10.121 -38.893 10.371 -40.522 10.621 C-44.805 11.276 -49.09 11.919 -53.375 12.562 C-54.134 12.677 -54.894 12.792 -55.677 12.91 C-61.414 13.773 -67.156 14.596 -72.9 15.413 C-76.755 15.963 -80.608 16.523 -84.461 17.084 C-88.088 17.611 -91.714 18.136 -95.341 18.659 C-97.201 18.929 -99.06 19.199 -100.919 19.471 C-110.928 20.933 -120.895 22.383 -131 23 C-131.625 21.125 -131.625 21.125 -132 19 C-129.634 16.634 -128.823 16.65 -125.582 16.289 C-124.671 16.181 -123.759 16.073 -122.82 15.961 C-121.828 15.85 -120.835 15.739 -119.812 15.625 C-111.968 14.68 -104.206 13.564 -96.438 12.125 C-81.925 9.48 -67.284 7.73 -52.656 5.858 C-46.307 5.044 -39.965 4.189 -33.625 3.312 C-30.417 2.873 -27.209 2.436 -24 2 C-23.236 1.896 -22.471 1.791 -21.684 1.684 C-19.498 1.387 -17.312 1.099 -15.125 0.812 C-13.931 0.654 -12.738 0.495 -11.508 0.332 C-7.635 -0.035 -3.888 -0.056 0 0 Z " fill="#464747" transform="translate(600,130)"/>
<path d="M0 0 C1.172 0.014 1.172 0.014 2.367 0.027 C2.947 0.039 3.527 0.051 4.125 0.062 C4.62 1.547 4.62 1.547 5.125 3.062 C4.795 3.722 4.465 4.382 4.125 5.062 C6.435 5.062 8.745 5.062 11.125 5.062 C11.125 5.392 11.125 5.722 11.125 6.062 C10.365 6.152 9.605 6.242 8.822 6.334 C5.089 6.779 1.357 7.231 -2.375 7.688 C-3.418 7.815 -3.418 7.815 -4.482 7.945 C-18.945 9.727 -33.347 11.881 -47.744 14.131 C-48.574 14.259 -49.404 14.387 -50.259 14.519 C-51.811 14.759 -53.363 15.002 -54.914 15.25 C-58.941 15.869 -62.802 16.182 -66.875 16.062 C-66.545 15.073 -66.215 14.082 -65.875 13.062 C-77.591 12.524 -88.561 13.536 -100.105 15.64 C-106.145 16.723 -111.736 17.267 -117.875 17.062 C-117.875 16.733 -117.875 16.403 -117.875 16.062 C-113.487 15.383 -109.099 14.708 -104.71 14.036 C-103.225 13.808 -101.741 13.58 -100.257 13.35 C-91.869 12.051 -83.49 10.873 -75.055 9.921 C-64.2 8.671 -53.388 7.078 -42.569 5.549 C-38.658 4.996 -34.746 4.446 -30.834 3.896 C-28.333 3.544 -25.833 3.192 -23.332 2.84 C-21.588 2.595 -21.588 2.595 -19.809 2.344 C-18.723 2.191 -17.638 2.037 -16.519 1.879 C-15.571 1.745 -14.623 1.611 -13.646 1.473 C-11.654 1.178 -9.667 0.856 -7.682 0.518 C-5.058 0.092 -2.653 -0.04 0 0 Z " fill="#606160" transform="translate(299.875,59.9375)"/>
<path d="M0 0 C1.535 0.014 1.535 0.014 3.102 0.027 C4.227 0.045 4.227 0.045 5.375 0.062 C4.396 2.457 4.396 2.457 2.375 5.062 C-0.527 5.903 -2.999 6.4 -5.965 6.758 C-6.801 6.877 -7.637 6.996 -8.499 7.118 C-11.184 7.496 -13.873 7.842 -16.562 8.188 C-18.307 8.426 -20.051 8.667 -21.795 8.91 C-25.291 9.395 -28.789 9.868 -32.289 10.333 C-38.616 11.184 -44.926 12.15 -51.233 13.142 C-52.405 13.323 -52.405 13.323 -53.6 13.507 C-54.283 13.615 -54.966 13.722 -55.669 13.833 C-57.625 14.062 -57.625 14.062 -61.625 14.062 C-61.625 14.723 -61.625 15.382 -61.625 16.062 C-71.195 16.392 -80.765 16.723 -90.625 17.062 C-90.295 15.743 -89.965 14.423 -89.625 13.062 C-81.245 11.012 -72.918 9.376 -64.375 8.188 C-62.027 7.851 -59.68 7.514 -57.332 7.176 C-56.095 6.999 -54.859 6.822 -53.584 6.639 C-49.348 6.027 -45.117 5.381 -40.887 4.73 C-40.152 4.618 -39.417 4.505 -38.66 4.389 C-35.753 3.943 -32.847 3.497 -29.942 3.046 C-9.555 -0.111 -9.555 -0.111 0 0 Z " fill="#313333" transform="translate(462.625,355.9375)"/>
<path d="M0 0 C0.495 1.98 0.495 1.98 1 4 C-6.167 5.997 -13.386 6.999 -20.75 8 C-30.853 9.386 -30.853 9.386 -40.922 11 C-48.751 12.332 -56.63 13.27 -64.509 14.25 C-72.155 15.205 -79.756 16.229 -87.334 17.633 C-90.251 18.035 -93.059 18.06 -96 18 C-96 16.68 -96 15.36 -96 14 C-86.936 11.535 -77.839 9.873 -68.562 8.438 C-67.234 8.228 -65.905 8.017 -64.576 7.807 C-60.718 7.198 -56.859 6.598 -53 6 C-51.231 5.722 -51.231 5.722 -49.427 5.438 C-43.5 4.511 -37.586 3.666 -31.625 3 C-26.049 2.371 -20.494 1.66 -14.938 0.875 C-9.888 0.186 -5.089 -0.208 0 0 Z " fill="#4E4F4F" transform="translate(576,213)"/>
<path d="M0 0 C4.95 0 9.9 0 15 0 C14.34 0.66 13.68 1.32 13 2 C13.99 2.99 13.99 2.99 15 4 C14.268 4.026 13.536 4.052 12.781 4.078 C5.265 4.472 -1.973 5.438 -9.375 6.75 C-22.678 9.097 -36.06 10.709 -49.466 12.337 C-50.315 12.44 -51.164 12.543 -52.038 12.65 C-53.637 12.844 -55.236 13.036 -56.835 13.227 C-60.021 13.611 -63.178 14.03 -66.344 14.56 C-69.233 15.039 -71.949 15.098 -74.875 15.062 C-75.842 15.053 -76.809 15.044 -77.805 15.035 C-78.529 15.024 -79.254 15.012 -80 15 C-74.545 9.401 -71.295 8.612 -63.812 7.438 C-62.974 7.299 -62.135 7.16 -61.271 7.018 C-56.448 6.253 -51.883 5.848 -47 6 C-47 5.34 -47 4.68 -47 4 C-43.084 3.658 -39.167 3.328 -35.25 3 C-34.158 2.905 -33.066 2.809 -31.941 2.711 C-12.431 1.095 -12.431 1.095 -6 3 C-6 2.34 -6 1.68 -6 1 C-4.02 1 -2.04 1 0 1 C0 0.67 0 0.34 0 0 Z " fill="#3B3C3D" transform="translate(710,5)"/>
<path d="M0 0 C-0.33 0.99 -0.66 1.98 -1 3 C-10.207 4.999 -19.483 6.241 -28.812 7.5 C-31.944 7.926 -35.076 8.353 -38.207 8.781 C-38.962 8.884 -39.717 8.987 -40.495 9.093 C-46.105 9.862 -51.7 10.715 -57.289 11.626 C-61.279 12.176 -64.979 12.264 -69 12 C-69.66 11.34 -70.32 10.68 -71 10 C-68.786 7.786 -67.07 6.134 -63.887 5.734 C-61.923 5.748 -59.96 5.867 -58 6 C-58 5.34 -58 4.68 -58 4 C-56.704 3.89 -55.409 3.781 -54.074 3.668 C-44.985 2.867 -35.995 1.923 -27 0.375 C-17.952 -1.159 -9.047 -2.04 0 0 Z " fill="#323334" transform="translate(234,73)"/>
<path d="M0 0 C-0.619 0.268 -1.237 0.536 -1.875 0.812 C-4.3 1.956 -4.3 1.956 -6 5 C-9.09 5.738 -9.09 5.738 -12.938 6.312 C-22.95 8.066 -31.195 11.794 -37.633 19.941 C-41.995 26.509 -42.587 33.252 -43 41 C-43.66 40.67 -44.32 40.34 -45 40 C-45.33 41.65 -45.66 43.3 -46 45 C-49.325 40.012 -49.479 34.203 -48.602 28.336 C-45.933 18.194 -38.854 10.044 -29.875 4.746 C-20.357 0.14 -10.408 -0.327 0 0 Z " fill="#323333" transform="translate(49,97)"/>
<path d="M0 0 C0 0.33 0 0.66 0 1 C-4.95 1.66 -9.9 2.32 -15 3 C-15 3.66 -15 4.32 -15 5 C-17.31 5 -19.62 5 -22 5 C-22.33 5.99 -22.66 6.98 -23 8 C-21.68 8.33 -20.36 8.66 -19 9 C-23.997 9.743 -28.996 10.473 -33.996 11.191 C-35.695 11.437 -37.393 11.686 -39.091 11.939 C-41.54 12.303 -43.99 12.655 -46.441 13.004 C-47.193 13.118 -47.944 13.233 -48.718 13.351 C-53.415 14.004 -57.336 13.884 -62 13 C-60.68 12.01 -59.36 11.02 -58 10 C-69.451 9.313 -80.912 11.798 -90 19 C-96.075 24.653 -100.95 31.6 -102 40 C-102.33 40 -102.66 40 -103 40 C-102.644 32.144 -101.002 27.317 -95.625 21.375 C-94.759 20.591 -93.892 19.808 -93 19 C-92.154 18.175 -91.309 17.35 -90.438 16.5 C-82.169 9.814 -71.688 8.11 -61.438 7 C-59.486 6.766 -57.534 6.532 -55.583 6.295 C-54.214 6.128 -52.844 5.964 -51.474 5.801 C-46.174 5.167 -40.894 4.425 -35.613 3.641 C-34.831 3.525 -34.049 3.409 -33.243 3.29 C-30.162 2.834 -27.08 2.376 -24 1.908 C-15.954 0.687 -8.157 -0.288 0 0 Z " fill="#343434" transform="translate(103,88)"/>
<path d="M0 0 C-0.33 0.66 -0.66 1.32 -1 2 C1.569 3.284 3.766 3.33 6.625 3.562 C7.628 3.646 8.631 3.73 9.664 3.816 C10.435 3.877 11.206 3.938 12 4 C12 4.33 12 4.66 12 5 C11.01 5.146 11.01 5.146 10 5.295 C3.556 6.244 -2.889 7.194 -9.334 8.144 C-12.795 8.655 -16.255 9.165 -19.716 9.674 C-34.249 11.814 -48.78 13.96 -63.305 16.156 C-65.472 16.483 -67.639 16.81 -69.806 17.136 C-72.851 17.596 -75.895 18.056 -78.939 18.522 C-81.718 18.947 -84.497 19.366 -87.277 19.785 C-88.081 19.91 -88.884 20.034 -89.712 20.163 C-93.851 20.781 -97.8 21.13 -102 21 C-98.896 19.248 -96.187 18.561 -92.668 18.054 C-91.071 17.819 -91.071 17.819 -89.442 17.579 C-88.297 17.418 -87.152 17.256 -85.973 17.09 C-84.792 16.917 -83.611 16.745 -82.394 16.568 C-78.618 16.018 -74.84 15.477 -71.062 14.938 C-67.289 14.392 -63.515 13.845 -59.742 13.297 C-57.394 12.956 -55.046 12.618 -52.697 12.282 C-51.629 12.128 -50.561 11.974 -49.461 11.816 C-48.525 11.682 -47.589 11.548 -46.624 11.411 C-40.572 10.674 -40.572 10.674 -36 7 C-36.99 6.34 -37.98 5.68 -39 5 C-11.295 -0.461 -11.295 -0.461 0 0 Z " fill="#6D6A67" transform="translate(503,350)"/>
<path d="M0 0 C8.241 3.353 18.514 0.188 26.988 -1.16 C30.461 -1.581 33.818 -1.629 37.312 -1.562 C37.312 -1.233 37.312 -0.902 37.312 -0.562 C1.438 4.731 1.438 4.731 -9.949 6.336 C-14.925 7.038 -19.897 7.765 -24.867 8.508 C-26.747 8.785 -26.747 8.785 -28.665 9.068 C-31.114 9.43 -33.563 9.796 -36.011 10.168 C-42.315 11.092 -48.317 11.634 -54.688 11.438 C-54.688 11.108 -54.688 10.777 -54.688 10.438 C-50.398 9.777 -46.107 9.118 -41.688 8.438 C-43.008 7.777 -44.327 7.118 -45.688 6.438 C-45.357 5.447 -45.028 4.457 -44.688 3.438 C-44.119 3.357 -43.551 3.277 -42.966 3.194 C-40.311 2.818 -37.655 2.44 -35 2.062 C-34.042 1.927 -33.084 1.791 -32.097 1.651 C-26.826 0.9 -21.567 0.106 -16.312 -0.75 C-5.408 -2.406 -5.408 -2.406 0 0 Z " fill="#5E5D5B" transform="translate(644.6875,331.5625)"/>
<path d="M0 0 C0 0.33 0 0.66 0 1 C-0.761 1.1 -1.523 1.2 -2.307 1.304 C-5.77 1.769 -9.228 2.259 -12.688 2.75 C-14.485 2.986 -14.485 2.986 -16.318 3.227 C-17.475 3.394 -18.632 3.562 -19.824 3.734 C-20.887 3.881 -21.95 4.028 -23.046 4.179 C-26.467 5.13 -28.393 6.631 -31 9 C-30.505 9.99 -30.505 9.99 -30 11 C-33.144 11.511 -36.29 12.007 -39.438 12.5 C-40.316 12.643 -41.194 12.786 -42.1 12.934 C-47.807 13.818 -53.225 14.141 -59 14 C-59 13.01 -59 12.02 -59 11 C-69.438 11.366 -79.622 12.192 -89.921 13.984 C-95.659 14.945 -101.186 15.159 -107 15 C-107 14.67 -107 14.34 -107 14 C-95.416 12.106 -83.831 10.409 -72.181 8.979 C-60.731 7.57 -49.299 6.083 -37.895 4.344 C-36.988 4.206 -36.082 4.067 -35.148 3.925 C-30.775 3.255 -26.404 2.574 -22.034 1.88 C-20.442 1.632 -18.85 1.384 -17.258 1.137 C-16.553 1.021 -15.848 0.906 -15.122 0.787 C-10.038 0.003 -5.144 -0.092 0 0 Z " fill="#8C8C8C" transform="translate(663,10)"/>
<path d="M0 0 C1.922 0.695 1.922 0.695 4 2 C6.718 9.155 6.237 17.47 6 25 C6.66 25 7.32 25 8 25 C8.249 27.102 8.473 29.207 8.688 31.312 C8.815 32.484 8.943 33.656 9.074 34.863 C9 38 9 38 7.93 39.781 C5.236 41.483 2.483 42.261 -0.562 43.188 C-9.668 46.304 -16.305 51.24 -22 59 C-22.33 59.99 -22.66 60.98 -23 62 C-23.66 62 -24.32 62 -25 62 C-27.312 76.187 -27.216 88.152 -18.988 100.336 C-18 102 -18 102 -18 104 C-17.165 104.371 -17.165 104.371 -16.312 104.75 C-14 106 -14 106 -11.688 107.875 C-4.266 113.743 2.897 116.21 12.188 117.062 C20.757 117.878 20.757 117.878 23 119 C22.505 120.485 22.505 120.485 22 122 C21.01 121.01 21.01 121.01 20 120 C17.841 119.771 15.67 119.64 13.5 119.562 C0.323 118.743 -10.17 114.463 -19.375 104.688 C-28.052 94.264 -30.07 83.365 -29.261 70.117 C-28.215 61.623 -22.642 54.632 -16.559 48.969 C-9.808 43.774 -1.917 40.915 6 38 C5.107 28.427 4.116 18.909 2.438 9.438 C2.247 8.359 2.247 8.359 2.053 7.258 C1.379 3.519 1.379 3.519 0 0 Z " fill="#E5E1D9" transform="translate(759,74)"/>
<path d="M0 0 C-0.523 2.398 -0.523 2.398 -2 5 C-4.679 5.846 -6.871 6.296 -9.625 6.625 C-10.799 6.791 -10.799 6.791 -11.996 6.96 C-13.722 7.199 -15.449 7.427 -17.177 7.644 C-20.17 8.021 -23.157 8.433 -26.145 8.848 C-28.242 9.13 -30.34 9.41 -32.438 9.688 C-33.419 9.819 -34.4 9.951 -35.411 10.086 C-41.973 10.908 -48.389 11.153 -55 11 C-54.361 10.381 -53.721 9.762 -53.062 9.125 C-50.961 7.174 -50.961 7.174 -50 5 C-47.626 4.579 -45.333 4.288 -42.938 4.062 C-41.394 3.901 -39.851 3.738 -38.309 3.574 C-37.042 3.442 -37.042 3.442 -35.75 3.306 C-32.777 2.975 -29.813 2.597 -26.848 2.207 C-25.271 2.001 -25.271 2.001 -23.662 1.791 C-21.596 1.519 -19.53 1.244 -17.465 0.965 C-11.585 0.205 -5.929 -0.135 0 0 Z " fill="#3E3F3F" transform="translate(605,20)"/>
<path d="M0 0 C0 0.33 0 0.66 0 1 C-2.31 1.33 -4.62 1.66 -7 2 C-7.33 2.99 -7.66 3.98 -8 5 C-5.69 5 -3.38 5 -1 5 C-1 5.33 -1 5.66 -1 6 C-6.761 6.841 -12.523 7.677 -18.285 8.509 C-20.24 8.791 -22.196 9.076 -24.15 9.361 C-44.983 12.402 -44.983 12.402 -55 13 C-55.625 11.125 -55.625 11.125 -56 9 C-53.634 6.634 -52.823 6.65 -49.582 6.289 C-48.668 6.181 -47.754 6.072 -46.813 5.96 C-45.823 5.85 -44.833 5.739 -43.812 5.625 C-34.376 4.498 -25.051 3.049 -15.716 1.27 C-10.374 0.284 -5.433 -0.184 0 0 Z " fill="#595A5A" transform="translate(524,140)"/>
<path d="M0 0 C1.981 1.641 3.795 3.205 5.441 5.18 C5.441 5.84 5.441 6.5 5.441 7.18 C6.101 7.18 6.761 7.18 7.441 7.18 C7.936 9.16 7.936 9.16 8.441 11.18 C9.101 11.18 9.761 11.18 10.441 11.18 C13.888 19.719 14.975 26.993 14.441 36.18 C13.781 36.18 13.121 36.18 12.441 36.18 C11.418 40.582 11.359 43.13 13.441 47.18 C13.771 47.51 14.101 47.84 14.441 48.18 C14.572 51.574 14.598 54.566 13.754 57.867 C13.175 60.299 13.175 60.299 14.879 62.492 C15.395 63.049 15.91 63.606 16.441 64.18 C13.574 63.606 12.58 63.318 10.441 61.18 C10.588 58.125 11.025 55.154 11.445 52.125 C11.441 48.655 10.646 47.745 8.441 45.18 C8.066 42.18 8.066 42.18 8.441 39.18 C8.936 38.564 9.431 37.947 9.941 37.312 C12.712 33.373 11.883 28.802 11.441 24.18 C9.789 14.8 4.958 7.469 -2.48 1.566 C-18.185 -8.913 -36.255 -4.725 -53.782 -2.244 C-55.072 -2.063 -56.362 -1.882 -57.691 -1.695 C-59.422 -1.444 -59.422 -1.444 -61.188 -1.188 C-64.672 -0.808 -68.057 -0.758 -71.559 -0.82 C-71.559 -1.15 -71.559 -1.48 -71.559 -1.82 C-70.742 -1.936 -69.925 -2.052 -69.083 -2.172 C-66.031 -2.605 -62.978 -3.04 -59.925 -3.474 C-57.963 -3.754 -56.001 -4.032 -54.039 -4.311 C-52.795 -4.488 -51.551 -4.665 -50.27 -4.848 C-48.557 -5.091 -48.557 -5.091 -46.81 -5.34 C-44.685 -5.654 -42.564 -5.994 -40.448 -6.364 C-26.577 -8.554 -11.749 -8.359 0 0 Z " fill="#E0E0E0" transform="translate(742.55859375,9.8203125)"/>
<path d="M0 0 C0.993 -0.008 1.986 -0.015 3.01 -0.023 C8.504 -0.009 13.123 0.421 18.312 2.25 C15.852 4.711 14.539 4.757 11.141 5.32 C9.564 5.582 9.564 5.582 7.955 5.849 C6.835 6.022 5.716 6.196 4.562 6.375 C3.433 6.554 2.304 6.733 1.141 6.917 C-6.883 8.126 -14.569 8.773 -22.688 8.25 C-23.312 6.375 -23.312 6.375 -23.688 4.25 C-18.211 -1.226 -7.231 -0.057 0 0 Z " fill="#515251" transform="translate(326.6875,56.75)"/>
<path d="M0 0 C-2.772 2.772 -5.769 2.89 -9.5 3.5 C-10.249 3.627 -10.998 3.753 -11.769 3.884 C-17.35 4.799 -22.945 5.545 -28.562 6.188 C-29.287 6.271 -30.011 6.355 -30.758 6.441 C-35.53 6.951 -40.201 7.07 -45 7 C-45 6.34 -45 5.68 -45 5 C-45.99 4.34 -46.98 3.68 -48 3 C-41.139 0.648 -34.124 0.101 -26.938 -0.625 C-25.057 -0.826 -25.057 -0.826 -23.139 -1.031 C-14.878 -1.892 -7.949 -2.544 0 0 Z " fill="#343636" transform="translate(467,42)"/>
<path d="M0 0 C2 2 2 2 2 4 C-4.39 5.488 -10.757 6.688 -17.25 7.625 C-18.618 7.823 -18.618 7.823 -20.014 8.025 C-27.065 8.988 -33.88 9.357 -41 9 C-41 8.34 -41 7.68 -41 7 C-41.99 6.67 -42.98 6.34 -44 6 C-42.927 5.876 -41.855 5.752 -40.75 5.625 C-37.209 5.231 -37.209 5.231 -35.083 4.014 C-32.66 2.834 -30.598 2.498 -27.93 2.148 C-26.95 2.02 -25.97 1.891 -24.961 1.758 C-23.943 1.631 -22.924 1.505 -21.875 1.375 C-20.382 1.174 -20.382 1.174 -18.859 0.969 C-5.732 -0.711 -5.732 -0.711 0 0 Z " fill="#252728" transform="translate(121,87)"/>
<path d="M0 0 C1.714 0.437 3.447 0.808 5.188 1.125 C6.089 1.293 6.99 1.46 7.918 1.633 C8.949 1.815 8.949 1.815 10 2 C10 2.33 10 2.66 10 3 C5.558 3.701 1.114 4.395 -3.33 5.081 C-4.835 5.315 -6.34 5.551 -7.845 5.788 C-17.564 7.323 -27.165 8.484 -37 9 C-37 8.67 -37 8.34 -37 8 C-31.555 7.01 -31.555 7.01 -26 6 C-27.32 5.67 -28.64 5.34 -30 5 C-30.33 4.01 -30.66 3.02 -31 2 C-26.147 0.51 -21.49 -0.472 -16.438 -1.125 C-14.548 -1.376 -14.548 -1.376 -12.621 -1.633 C-3.792 -2.528 -3.792 -2.528 0 0 Z " fill="#5C5C5D" transform="translate(160,402)"/>
<path d="M0 0 C1 2 1 2 1.438 5.5 C1.657 9.048 1.657 9.048 4 11 C4.222 14.261 4.003 16.988 3.312 20.188 C2.691 22.956 2.691 22.956 4.188 24.688 C5.998 26.047 5.998 26.047 8.062 27.188 C11.511 30.413 11.87 35.155 12.19 39.697 C12.268 42.655 12.273 45.604 12.25 48.562 C12.262 50.066 12.262 50.066 12.273 51.6 C12.259 57.126 11.845 61.781 10 67 C9.34 67 8.68 67 8 67 C7.505 68.98 7.505 68.98 7 71 C6.34 71 5.68 71 5 71 C4.738 71.599 4.477 72.199 4.207 72.816 C0.562 79.41 -7.416 82.46 -14.164 84.898 C-24.772 87.945 -35.967 89.543 -47 89 C-47 88.67 -47 88.34 -47 88 C-46.245 87.9 -45.49 87.8 -44.712 87.696 C-41.223 87.226 -37.737 86.738 -34.25 86.25 C-33.063 86.093 -31.876 85.935 -30.652 85.773 C-18.73 84.08 -5.323 81.599 2.781 71.859 C7.671 64.813 10.53 58.355 10.312 49.75 C10.3 49.009 10.287 48.267 10.274 47.503 C10.153 38.576 10.153 38.576 8 30 C5.153 27.433 5.153 27.433 2 26 C-0.148 22.778 -0.294 21.722 0 18 C0.495 17.505 0.495 17.505 1 17 C1.328 13.962 1.404 12.522 -0.5 10.062 C-2.536 7.263 -2.368 5.383 -2 2 C-1.34 1.34 -0.68 0.68 0 0 Z " fill="#DDD8D1" transform="translate(784,233)"/>
<path d="M0 0 C1.756 0.014 1.756 0.014 3.547 0.027 C4.439 0.039 5.331 0.051 6.25 0.062 C5.559 2.484 5.559 2.484 4.25 5.062 C2.035 5.953 2.035 5.953 -0.688 6.312 C-1.675 6.449 -2.662 6.586 -3.68 6.727 C-4.693 6.837 -5.706 6.948 -6.75 7.062 C-7.681 7.173 -8.611 7.284 -9.57 7.398 C-15.639 8.038 -21.651 8.182 -27.75 8.062 C-27.42 6.412 -27.09 4.762 -26.75 3.062 C-25.087 2.863 -25.087 2.863 -23.391 2.66 C-21.927 2.482 -20.464 2.304 -19 2.125 C-17.906 1.994 -17.906 1.994 -16.789 1.861 C-12.717 1.375 -12.717 1.375 -8.709 0.535 C-5.8 -0.167 -2.984 -0.03 0 0 Z " fill="#444545" transform="translate(510.75,182.9375)"/>
<path d="M0 0 C-0.33 0.66 -0.66 1.32 -1 2 C-0.34 2.66 0.32 3.32 1 4 C-5.131 5.647 -11.217 6.742 -17.5 7.625 C-18.848 7.826 -18.848 7.826 -20.223 8.031 C-25.542 8.79 -30.628 9.138 -36 9 C-33 7 -33 7 -30 6 C-30.66 5.34 -31.32 4.68 -32 4 C-21.151 1.546 -11.115 -0.176 0 0 Z " fill="#383838" transform="translate(272,384)"/>
<path d="M0 0 C0.562 1.938 0.562 1.938 1 4 C-0.628 5.628 -2.604 5.437 -4.848 5.719 C-5.846 5.846 -6.844 5.974 -7.873 6.105 C-8.926 6.236 -9.978 6.366 -11.062 6.5 C-12.601 6.695 -12.601 6.695 -14.17 6.895 C-17.113 7.267 -20.056 7.635 -23 8 C-24.582 8.198 -26.164 8.396 -27.746 8.594 C-28.82 8.728 -29.894 8.862 -31 9 C-30.01 7.68 -29.02 6.36 -28 5 C-29.052 5.278 -29.052 5.278 -30.125 5.562 C-33.339 6.052 -35.836 5.662 -39 5 C-39 4.67 -39 4.34 -39 4 C-34.732 3.424 -30.464 2.854 -26.195 2.291 C-24.746 2.099 -23.297 1.905 -21.848 1.709 C-19.754 1.426 -17.658 1.15 -15.562 0.875 C-14.306 0.707 -13.049 0.54 -11.754 0.367 C-7.789 -0.021 -3.98 -0.062 0 0 Z " fill="#555656" transform="translate(600,130)"/>
<path d="M0 0 C1.935 0.73 1.935 0.73 4 2 C4.729 3.952 4.729 3.952 5.047 6.324 C5.169 7.189 5.292 8.053 5.418 8.943 C5.528 9.849 5.637 10.754 5.75 11.688 C5.875 12.574 6 13.46 6.129 14.373 C6.791 19.29 7.136 24.041 7 29 C5.063 29.562 5.063 29.562 3 30 C0.836 27.836 0.932 23.545 0.438 20.562 C0.302 19.747 0.166 18.931 0.026 18.09 C-0.889 12.319 -1.371 6.851 -1 1 C-0.67 0.67 -0.34 0.34 0 0 Z " fill="#636564" transform="translate(164,179)"/>
<path d="M0 0 C0 0.99 0 1.98 0 3 C-2.936 4.957 -3.898 5.302 -7.23 5.633 C-8.033 5.717 -8.835 5.8 -9.662 5.887 C-10.495 5.965 -11.329 6.044 -12.188 6.125 C-13.032 6.211 -13.877 6.298 -14.748 6.387 C-16.831 6.599 -18.916 6.8 -21 7 C-21.66 6.01 -22.32 5.02 -23 4 C-24.931 3.586 -24.931 3.586 -27.133 3.707 C-27.938 3.717 -28.744 3.726 -29.574 3.736 C-30.416 3.761 -31.258 3.787 -32.125 3.812 C-32.974 3.826 -33.824 3.84 -34.699 3.854 C-36.8 3.889 -38.9 3.943 -41 4 C-41 3.67 -41 3.34 -41 3 C-27.243 0.259 -13.979 -0.13 0 0 Z " fill="#545553" transform="translate(144,84)"/>
<path d="M0 0 C3.875 0.875 3.875 0.875 5 2 C5.409 4.648 5.759 7.277 6.062 9.938 C6.197 11.09 6.197 11.09 6.333 12.265 C6.953 17.877 7.179 23.351 7 29 C5.68 29 4.36 29 3 29 C-0.992 25.008 -0.113 14.214 -0.138 8.723 C-0.119 5.815 -0.072 2.908 0 0 Z " fill="#5A5B5B" transform="translate(158,134)"/>
<path d="M0 0 C0 0.33 0 0.66 0 1 C-1.65 1 -3.3 1 -5 1 C-5 1.66 -5 2.32 -5 3 C-0.38 3 4.24 3 9 3 C9 3.33 9 3.66 9 4 C7.719 4.11 6.437 4.219 5.117 4.332 C-4.148 5.167 -13.103 6.193 -22.152 8.414 C-24.862 8.972 -27.244 9.112 -30 9 C-29.67 8.381 -29.34 7.763 -29 7.125 C-27.858 5.09 -27.858 5.09 -28 3 C-18.346 0.535 -9.954 -0.408 0 0 Z " fill="#535555" transform="translate(330,105)"/>
<path d="M0 0 C0 0.99 0 1.98 0 3 C5.94 3 11.88 3 18 3 C18 3.33 18 3.66 18 4 C13.429 4.719 8.858 5.431 4.285 6.136 C2.732 6.377 1.18 6.619 -0.373 6.864 C-2.614 7.216 -4.856 7.562 -7.098 7.906 C-8.126 8.07 -8.126 8.07 -9.176 8.238 C-13.487 8.891 -17.642 9.099 -22 9 C-21.381 8.732 -20.762 8.464 -20.125 8.188 C-17.7 7.044 -17.7 7.044 -16 4 C-16.99 3.34 -17.98 2.68 -19 2 C-16.959 1.661 -14.917 1.329 -12.875 1 C-11.738 0.814 -10.601 0.629 -9.43 0.438 C-6.239 0.03 -3.212 -0.078 0 0 Z " fill="#585858" transform="translate(373,369)"/>
<path d="M0 0 C1.958 -0.054 3.916 -0.093 5.875 -0.125 C7.511 -0.16 7.511 -0.16 9.18 -0.195 C12 0 12 0 14 2 C13.34 2 12.68 2 12 2 C12 2.66 12 3.32 12 4 C14.64 4 17.28 4 20 4 C20 4.33 20 4.66 20 5 C19.44 5.055 18.88 5.111 18.303 5.168 C15.764 5.421 13.226 5.679 10.688 5.938 C9.366 6.068 9.366 6.068 8.018 6.201 C6.746 6.332 6.746 6.332 5.449 6.465 C4.279 6.583 4.279 6.583 3.085 6.703 C0.811 6.963 0.811 6.963 -2 8 C-3.518 8.116 -5.04 8.175 -6.562 8.188 C-7.74 8.209 -7.74 8.209 -8.941 8.23 C-11 8 -11 8 -13 6 C-10.786 3.786 -9.07 2.134 -5.887 1.734 C-3.923 1.748 -1.96 1.867 0 2 C0 1.34 0 0.68 0 0 Z " fill="#3F3F3E" transform="translate(176,77)"/>
<path d="M0 0 C1.32 0.33 2.64 0.66 4 1 C6.178 10.601 6.59 20.201 7 30 C5.35 29.67 3.7 29.34 2 29 C-0.383 9.66 -0.383 9.66 0 0 Z " fill="#676666" transform="translate(175,272)"/>
<path d="M0 0 C1.935 0.7 1.935 0.7 4 2 C4.729 4.151 4.729 4.151 5.047 6.797 C5.169 7.756 5.292 8.715 5.418 9.703 C5.528 10.709 5.637 11.714 5.75 12.75 C5.875 13.74 6 14.73 6.129 15.75 C6.709 20.521 7.164 25.186 7 30 C5.68 30.33 4.36 30.66 3 31 C1.374 25.815 0.46 20.834 -0.125 15.438 C-0.211 14.709 -0.298 13.98 -0.387 13.229 C-0.851 9.138 -1.191 5.123 -1 1 C-0.67 0.67 -0.34 0.34 0 0 Z " fill="#545656" transform="translate(181,318)"/>
<path d="M0 0 C3.875 0.875 3.875 0.875 5 2 C6.63 11.009 7.307 19.846 7 29 C5.68 29 4.36 29 3 29 C0.8 26.8 1.248 22.061 0.938 19 C0.847 18.174 0.756 17.347 0.662 16.496 C0.087 10.967 -0.084 5.558 0 0 Z " fill="#525352" transform="translate(169,226)"/>
<path d="M0 0 C5.875 1.875 5.875 1.875 7 3 C6.991 6.271 6.867 9.532 6.742 12.801 C7.026 16.324 7.747 17.395 10 20 C10.5 22.875 10.5 22.875 10 26 C9.156 26.864 8.311 27.727 7.441 28.617 C5.151 31.262 4.662 32.899 4.809 36.391 C4.985 38.014 5.196 39.635 5.438 41.25 C5.6 42.514 5.6 42.514 5.766 43.803 C6.761 50.809 8.259 57.418 12.629 63.129 C14 65 14 65 14 67 C13.01 66.67 12.02 66.34 11 66 C11 65.01 11 64.02 11 63 C10.34 63 9.68 63 9 63 C4.621 56.139 4.123 49.458 3.395 41.535 C3.393 38.185 3.393 38.185 2 37 C1.625 34.812 1.625 34.812 2 32 C2.846 31.051 3.691 30.103 4.562 29.125 C7.389 26.176 7.389 26.176 6.938 22.312 C6.155 18.899 6.155 18.899 4 16 C3.805 12.645 3.805 12.645 3.875 8.812 C3.893 7.54 3.911 6.268 3.93 4.957 C3.953 3.981 3.976 3.005 4 2 C2.68 1.67 1.36 1.34 0 1 C0 0.67 0 0.34 0 0 Z " fill="#F0EFED" transform="translate(31,337)"/>
<path d="M0 0 C1.325 0.014 1.325 0.014 2.676 0.027 C3.672 0.045 3.672 0.045 4.688 0.062 C4.688 0.392 4.688 0.722 4.688 1.062 C3.67 1.198 2.653 1.334 1.605 1.474 C-2.239 1.988 -6.082 2.51 -9.924 3.034 C-11.574 3.258 -13.225 3.48 -14.875 3.7 C-40.566 6.361 -40.566 6.361 -60.844 20.98 C-64.123 25.629 -66.599 30.357 -67.312 36.062 C-67.642 36.062 -67.972 36.062 -68.312 36.062 C-67.956 28.207 -66.314 23.38 -60.938 17.438 C-60.071 16.654 -59.205 15.87 -58.312 15.062 C-57.044 13.825 -57.044 13.825 -55.75 12.562 C-46.933 5.461 -35.76 4.014 -24.875 2.812 C-23.526 2.653 -22.178 2.491 -20.83 2.328 C-18.369 2.031 -15.907 1.742 -13.444 1.464 C-1.833 -0.024 -1.833 -0.024 0 0 Z " fill="#DFD9CC" transform="translate(68.3125,91.9375)"/>
<path d="M0 0 C5.841 5.329 8.511 11.97 9.457 19.77 C9.82 33.035 5.608 42.031 -3 52 C-7.221 55.96 -11.323 58.581 -17 60 C-14.373 57.081 -11.252 55.168 -8 53 C-7.134 52.134 -7.134 52.134 -6.25 51.25 C-5.837 50.837 -5.425 50.425 -5 50 C-4.34 50 -3.68 50 -3 50 C-2.723 49.433 -2.446 48.866 -2.16 48.281 C-0.591 45.196 1.149 42.216 2.879 39.219 C3.934 37.131 4.538 35.284 5 33 C5.66 33 6.32 33 7 33 C7 26.73 7 20.46 7 14 C6.34 14 5.68 14 5 14 C3.239 9.359 1.535 4.722 0 0 Z " fill="#E6E2DD" transform="translate(55,234)"/>
<path d="M0 0 C-0.33 0.99 -0.66 1.98 -1 3 C-0.34 3.66 0.32 4.32 1 5 C-2.041 5.506 -5.082 6.005 -8.125 6.5 C-8.981 6.643 -9.837 6.786 -10.719 6.934 C-15.197 7.657 -19.446 8.179 -24 8 C-24 6.68 -24 5.36 -24 4 C-22.105 3.519 -20.209 3.041 -18.312 2.562 C-17.257 2.296 -16.201 2.029 -15.113 1.754 C-9.909 0.494 -5.381 -0.106 0 0 Z " fill="#5B5A59" transform="translate(504,223)"/>
<path d="M0 0 C2.062 0.438 2.062 0.438 4 1 C4.338 3.708 4.67 6.416 5 9.125 C5.095 9.886 5.191 10.646 5.289 11.43 C5.798 15.649 6.109 19.74 6 24 C4.68 24 3.36 24 2 24 C0.345 21.075 -0.285 18.836 -0.449 15.488 C-0.492 14.648 -0.536 13.809 -0.58 12.943 C-0.633 11.641 -0.633 11.641 -0.688 10.312 C-0.735 9.433 -0.782 8.553 -0.83 7.646 C-1.055 2.857 -1.055 2.857 -1 1 C-0.67 0.67 -0.34 0.34 0 0 Z " fill="#626260" transform="translate(154,94)"/>
<path d="M0 0 C4.95 0 9.9 0 15 0 C14.34 0.66 13.68 1.32 13 2 C13.66 2.66 14.32 3.32 15 4 C14.036 4.061 13.072 4.121 12.078 4.184 C10.815 4.267 9.552 4.351 8.25 4.438 C6.997 4.519 5.744 4.6 4.453 4.684 C1.784 4.928 -0.434 5.351 -3 6 C-4.872 6.139 -6.748 6.22 -8.625 6.25 C-10.067 6.289 -10.067 6.289 -11.539 6.328 C-12.351 6.22 -13.163 6.112 -14 6 C-14.66 5.01 -15.32 4.02 -16 3 C-15.67 2.67 -15.34 2.34 -15 2 C-13.475 2.089 -11.953 2.245 -10.438 2.438 C-9.198 2.59 -9.198 2.59 -7.934 2.746 C-6.976 2.872 -6.976 2.872 -6 3 C-6 2.34 -6 1.68 -6 1 C-4.02 1 -2.04 1 0 1 C0 0.67 0 0.34 0 0 Z " fill="#313333" transform="translate(710,5)"/>
<path d="M0 0 C5.445 0.495 5.445 0.495 11 1 C11 1.66 11 2.32 11 3 C15.95 3 20.9 3 26 3 C26 3.33 26 3.66 26 4 C19.293 5.004 12.585 6 5.877 6.991 C3.596 7.328 1.316 7.668 -0.964 8.009 C-4.248 8.501 -7.532 8.985 -10.816 9.469 C-12.337 9.698 -12.337 9.698 -13.889 9.933 C-18.986 10.677 -23.848 11.176 -29 11 C-29 10.67 -29 10.34 -29 10 C-18.44 8.35 -7.88 6.7 3 5 C3 4.01 3 3.02 3 2 C2.01 1.34 1.02 0.68 0 0 Z " fill="#939393" transform="translate(268,383)"/>
<path d="M0 0 C0.33 0.99 0.66 1.98 1 3 C0.67 3.66 0.34 4.32 0 5 C2.31 5 4.62 5 7 5 C7 5.33 7 5.66 7 6 C-2.405 6.99 -2.405 6.99 -12 8 C-12 6.68 -12 5.36 -12 4 C-14.97 3.67 -17.94 3.34 -21 3 C-21 2.67 -21 2.34 -21 2 C-13.903 0.655 -7.227 -0.241 0 0 Z " fill="#6C6D6C" transform="translate(304,60)"/>
<path d="M0 0 C0.33 0.99 0.66 1.98 1 3 C2.65 3 4.3 3 6 3 C5.67 3.66 5.34 4.32 5 5 C-2.484 7.275 -10.255 7.243 -18 7 C-14.25 5 -14.25 5 -12 5 C-12.33 3.68 -12.66 2.36 -13 1 C-8.606 0.143 -4.474 -0.089 0 0 Z " fill="#3A3B3C" transform="translate(129,404)"/>
<path d="M0 0 C0 1.32 0 2.64 0 4 C-6.618 6.463 -13.004 6.189 -20 6 C-20 4.68 -20 3.36 -20 2 C-13.183 0.212 -7.035 -0.237 0 0 Z " fill="#272829" transform="translate(208,75)"/>
<path d="M0 0 C0.66 0.33 1.32 0.66 2 1 C2.354 6.405 2.354 6.405 2 9 C1.34 9.474 0.68 9.949 0 10.438 C-0.99 11.211 -0.99 11.211 -2 12 C-2.497 19.601 -1.275 26.884 -0.062 34.375 C0.12 35.549 0.302 36.724 0.49 37.934 C1.41 44.046 1.41 44.046 3 50 C0 49 0 49 -1.117 46.996 C-2.283 43.041 -2.729 39.159 -3.125 35.062 C-3.208 34.227 -3.29 33.391 -3.376 32.529 C-4.816 17.033 -4.816 17.033 -4 11 C-2.523 9.387 -2.523 9.387 -1 8 C-0.43 5.959 -0.43 5.959 -0.312 3.812 C-0.209 2.554 -0.106 1.296 0 0 Z " fill="#E6E0D5" transform="translate(11,166)"/>
<path d="M0 0 C-0.99 0.66 -1.98 1.32 -3 2 C-0.525 2.495 -0.525 2.495 2 3 C-2.317 5.878 -5.4 6.181 -10.5 6.25 C-11.645 6.276 -12.789 6.302 -13.969 6.328 C-17 6 -17 6 -18.906 4.484 C-19.267 3.995 -19.628 3.505 -20 3 C-19.34 3 -18.68 3 -18 3 C-18 2.34 -18 1.68 -18 1 C-11.974 -0.071 -6.111 -0.099 0 0 Z " fill="#282A2C" transform="translate(521,348)"/>
<path d="M0 0 C1 2 1 2 1.438 5.5 C1.657 9.048 1.657 9.048 4 11 C4.222 14.261 4.003 16.988 3.312 20.188 C2.691 22.956 2.691 22.956 4.188 24.688 C5.998 26.047 5.998 26.047 8.062 27.188 C11.696 30.587 11.93 35.229 12.117 39.969 C12.124 42.649 12.089 45.321 12 48 C11.67 48 11.34 48 11 48 C10.78 46.121 10.78 46.121 10.555 44.203 C10.33 42.552 10.103 40.901 9.875 39.25 C9.782 38.425 9.689 37.6 9.594 36.75 C8.817 31.4 8.817 31.4 5.008 27.609 C4.015 27.078 3.023 26.547 2 26 C-0.148 22.778 -0.294 21.722 0 18 C0.33 17.67 0.66 17.34 1 17 C1.328 13.962 1.404 12.522 -0.5 10.062 C-2.536 7.263 -2.368 5.383 -2 2 C-1.34 1.34 -0.68 0.68 0 0 Z " fill="#EFE9DF" transform="translate(784,233)"/>
<path d="M0 0 C0 0.33 0 0.66 0 1 C-2.31 1.66 -4.62 2.32 -7 3 C-7 3.66 -7 4.32 -7 5 C-3.7 5 -0.4 5 3 5 C-2.716 7.858 -8.116 7.832 -14.25 6.062 C-20.061 4.416 -25.989 4.317 -32 4 C-32 3.67 -32 3.34 -32 3 C-9.199 -0.582 -9.199 -0.582 0 0 Z " fill="#868684" transform="translate(356,53)"/>
<path d="M0 0 C-0.125 1.875 -0.125 1.875 -1 4 C-5.309 6.033 -9.164 6.221 -13.875 6.125 C-15.027 6.107 -16.18 6.089 -17.367 6.07 C-18.236 6.047 -19.105 6.024 -20 6 C-19.67 4.68 -19.34 3.36 -19 2 C-12.57 0.26 -6.651 -0.25 0 0 Z " fill="#3F4141" transform="translate(488,36)"/>
<path d="M0 0 C1.32 0 2.64 0 4 0 C5.174 2.349 5.115 3.738 5.098 6.352 C5.094 7.202 5.091 8.053 5.088 8.93 C5.08 9.819 5.071 10.709 5.062 11.625 C5.058 12.522 5.053 13.419 5.049 14.344 C5.037 16.563 5.021 18.781 5 21 C4.01 20.67 3.02 20.34 2 20 C0.742 13.258 -0.264 6.865 0 0 Z " fill="#515252" transform="translate(186,365)"/>
<path d="M0 0 C0 0.33 0 0.66 0 1 C-4.95 1.66 -9.9 2.32 -15 3 C-15 3.66 -15 4.32 -15 5 C-17.31 5 -19.62 5 -22 5 C-22.33 5.99 -22.66 6.98 -23 8 C-21.68 8.33 -20.36 8.66 -19 9 C-22.96 9 -26.92 9 -31 9 C-30.67 7.02 -30.34 5.04 -30 3 C-26.877 2.487 -23.751 1.992 -20.625 1.5 C-19.755 1.357 -18.885 1.214 -17.988 1.066 C-11.944 0.126 -6.113 -0.178 0 0 Z " fill="#74716D" transform="translate(103,88)"/>
<path d="M0 0 C-0.33 0.66 -0.66 1.32 -1 2 C0.98 2.33 2.96 2.66 5 3 C5 3.33 5 3.66 5 4 C3.419 4.223 1.835 4.428 0.25 4.625 C-1.073 4.799 -1.073 4.799 -2.422 4.977 C-5.251 5.002 -6.628 4.485 -9 3 C-9.33 2.67 -9.66 2.34 -10 2 C-12.086 2.093 -14.17 2.252 -16.25 2.438 C-23.185 2.993 -30.047 3.104 -37 3 C-37 2.67 -37 2.34 -37 2 C-29.155 0.701 -21.372 -0.22 -13.438 -0.688 C-12.296 -0.76 -12.296 -0.76 -11.131 -0.834 C-7.249 -1.038 -3.77 -0.993 0 0 Z " fill="#797A78" transform="translate(470,39)"/>
<path d="M0 0 C3.63 0 7.26 0 11 0 C10.67 0.99 10.34 1.98 10 3 C13.903 3.068 17.51 3.073 21.375 2.5 C25.939 1.87 30.402 1.917 35 2 C35 2.33 35 2.66 35 3 C30.48 3.675 25.959 4.338 21.438 5 C20.161 5.191 18.884 5.382 17.568 5.578 C15.707 5.849 15.707 5.849 13.809 6.125 C12.672 6.293 11.536 6.46 10.365 6.633 C6.883 7.013 3.5 7.062 0 7 C0.99 6.34 1.98 5.68 3 5 C1.68 4.01 0.36 3.02 -1 2 C-0.67 1.34 -0.34 0.68 0 0 Z " fill="#7E7C79" transform="translate(517,347)"/>
<path d="M0 0 C0.66 0.33 1.32 0.66 2 1 C1.67 1.66 1.34 2.32 1 3 C1.079 15.355 3.322 27.786 5 40 C4.34 40 3.68 40 3 40 C2.867 39.29 2.734 38.579 2.598 37.848 C2.333 36.469 2.333 36.469 2.062 35.062 C1.888 34.146 1.714 33.229 1.535 32.285 C1.223 30.047 1.223 30.047 0 29 C-0.573 24.727 -0.849 20.422 -1.188 16.125 C-1.349 14.309 -1.349 14.309 -1.514 12.457 C-1.606 11.298 -1.698 10.139 -1.793 8.945 C-1.881 7.878 -1.969 6.811 -2.059 5.711 C-2 3 -2 3 0 0 Z " fill="#E7E4E1" transform="translate(26,297)"/>
<path d="M0 0 C0.66 0.66 1.32 1.32 2 2 C-5.13 3.901 -11.637 4.224 -19 4 C-18.67 2.68 -18.34 1.36 -18 0 C-11.958 -1.208 -6.07 -1.158 0 0 Z " fill="#272829" transform="translate(343,58)"/>
<path d="M0 0 C-0.66 0.66 -1.32 1.32 -2 2 C-4.125 1.625 -4.125 1.625 -6 1 C-6 1.99 -6 2.98 -6 4 C-2.04 4.33 1.92 4.66 6 5 C6 5.33 6 5.66 6 6 C2.98 6.507 -0.041 7.006 -3.062 7.5 C-3.91 7.643 -4.758 7.786 -5.631 7.934 C-10.493 8.722 -15.075 9.16 -20 9 C-20 8.67 -20 8.34 -20 8 C-14.555 7.01 -14.555 7.01 -9 6 C-10.32 5.67 -11.64 5.34 -13 5 C-13.33 4.01 -13.66 3.02 -14 2 C-9.127 0.409 -5.192 -0.212 0 0 Z " fill="#7C7D7E" transform="translate(143,402)"/>
<path d="M0 0 C4.428 1.392 6.956 3.521 10 7 C10 7.66 10 8.32 10 9 C10.66 9 11.32 9 12 9 C12.33 10.32 12.66 11.64 13 13 C13.66 13 14.32 13 15 13 C17.892 20.513 19.643 26.924 19 35 C16.748 31.622 16.426 29.351 15.75 25.375 C13.692 15.433 9.415 9.649 1.539 3.41 C1.031 2.945 0.523 2.479 0 2 C0 1.34 0 0.68 0 0 Z " fill="#F9F7F6" transform="translate(738,8)"/>
<path d="M0 0 C0.33 0.99 0.66 1.98 1 3 C3 4.209 3 4.209 5 5 C0.482 5.883 -3.775 6.106 -8.375 6.062 C-10.243 6.049 -10.243 6.049 -12.148 6.035 C-13.56 6.018 -13.56 6.018 -15 6 C-14.01 5.34 -13.02 4.68 -12 4 C-12.99 3.34 -13.98 2.68 -15 2 C-13.251 1.662 -11.501 1.33 -9.75 1 C-8.775 0.814 -7.801 0.629 -6.797 0.438 C-4 0 -4 0 0 0 Z " fill="#2E2F30" transform="translate(72,93)"/>
<path d="M0 0 C0.99 0.495 0.99 0.495 2 1 C2.429 3.558 2.752 6.048 3 8.625 C3.413 12.781 3.892 16.624 5.055 20.652 C5.984 23.942 6.209 26.539 6.125 29.938 C6.107 30.895 6.089 31.853 6.07 32.84 C6.036 33.909 6.036 33.909 6 35 C5.34 35 4.68 35 4 35 C3.325 30.48 2.662 25.959 2 21.438 C1.809 20.161 1.618 18.884 1.422 17.568 C1.241 16.328 1.061 15.087 0.875 13.809 C0.707 12.672 0.54 11.536 0.367 10.365 C-0.013 6.883 -0.062 3.5 0 0 Z " fill="#E7E0D5" transform="translate(782,197)"/>
<path d="M0 0 C0 1.32 0 2.64 0 4 C-3.155 4.936 -5.966 5.106 -9.25 5.062 C-10.142 5.053 -11.034 5.044 -11.953 5.035 C-12.629 5.024 -13.304 5.012 -14 5 C-14.495 2.525 -14.495 2.525 -15 0 C-9.773 -1.206 -5.235 -0.756 0 0 Z " fill="#2E3031" transform="translate(539,346)"/>
<path d="M0 0 C-0.33 0.99 -0.66 1.98 -1 3 C0.32 3.66 1.64 4.32 3 5 C-5.91 5.99 -5.91 5.99 -15 7 C-14.01 5.68 -13.02 4.36 -12 3 C-13.052 3.278 -13.052 3.278 -14.125 3.562 C-17.339 4.052 -19.836 3.662 -23 3 C-23 2.67 -23 2.34 -23 2 C-7.255 -0.296 -7.255 -0.296 0 0 Z " fill="#676868" transform="translate(584,132)"/>
<path d="M0 0 C0.33 0 0.66 0 1 0 C2.129 5.361 2.097 10.553 2 16 C0.68 16 -0.64 16 -2 16 C-3.74 14.26 -3.372 11.806 -3.562 9.438 C-3.646 8.426 -3.73 7.414 -3.816 6.371 C-3.877 5.589 -3.938 4.806 -4 4 C-3.01 4.495 -3.01 4.495 -2 5 C-1.34 3.35 -0.68 1.7 0 0 Z " fill="#686868" transform="translate(163,147)"/>
<path d="M0 0 C0.33 1.32 0.66 2.64 1 4 C-4.808 5.506 -9.998 6.218 -16 6 C-13 4 -13 4 -10 3 C-10.66 2.34 -11.32 1.68 -12 1 C-8.019 -0.327 -4.15 -0.069 0 0 Z " fill="#2C2D2E" transform="translate(252,387)"/>
<path d="M0 0 C0 0.33 0 0.66 0 1 C-2.31 1 -4.62 1 -7 1 C-7 1.66 -7 2.32 -7 3 C-6.01 3.33 -5.02 3.66 -4 4 C-8.537 5.452 -12.181 6.235 -17 6 C-17 4.68 -17 3.36 -17 2 C-11.356 -0.441 -6.022 -0.193 0 0 Z " fill="#504F4E" transform="translate(497,225)"/>
<path d="M0 0 C0.33 0 0.66 0 1 0 C1.052 0.941 1.103 1.882 1.156 2.852 C1.549 10.04 1.549 10.04 4.914 16.09 C7.074 17.588 7.074 17.588 9.32 18.691 C10.152 19.339 10.152 19.339 11 20 C11.31 22.78 11.023 24.893 10.438 27.625 C9.777 30.136 9.777 30.136 11 33 C10.01 32.67 9.02 32.34 8 32 C8.012 31.229 8.023 30.458 8.035 29.664 C8.044 28.661 8.053 27.658 8.062 26.625 C8.074 25.627 8.086 24.63 8.098 23.602 C8.18 21.016 8.18 21.016 7 19 C6.196 18.567 5.391 18.134 4.562 17.688 C1.462 15.646 1.075 14.498 0 11 C-0.195 8.105 -0.195 8.105 -0.125 5.188 C-0.107 4.212 -0.089 3.236 -0.07 2.23 C-0.047 1.494 -0.024 0.758 0 0 Z " fill="#DCD6CA" transform="translate(0,133)"/>
<path d="M0 0 C2.681 2.681 2.387 4.392 2.625 8.125 C2.7 9.221 2.775 10.316 2.852 11.445 C2.901 12.288 2.95 13.131 3 14 C1.062 14.562 1.062 14.562 -1 15 C-2.73 13.27 -2.172 10.975 -2.188 8.625 C-2.202 7.648 -2.216 6.671 -2.23 5.664 C-2 3 -2 3 0 0 Z " fill="#525252" transform="translate(185,334)"/>
<path d="M0 0 C-0.66 1.65 -1.32 3.3 -2 5 C-5.96 5 -9.92 5 -14 5 C-12 1 -12 1 -10.375 0.25 C-6.903 -0.116 -3.491 -0.058 0 0 Z " fill="#4A4A4A" transform="translate(517,183)"/>
<path d="M0 0 C5.875 1.875 5.875 1.875 7 3 C6.991 6.271 6.867 9.532 6.742 12.801 C7.027 16.333 7.78 17.365 10 20 C10.188 23.25 10.188 23.25 10 26 C9.752 25.464 9.505 24.928 9.25 24.375 C8.051 21.863 8.051 21.863 5.875 19.625 C2.396 14.678 3.717 7.737 4 2 C2.68 1.67 1.36 1.34 0 1 C0 0.67 0 0.34 0 0 Z " fill="#E3E1E0" transform="translate(31,337)"/>
<path d="M0 0 C3.63 0 7.26 0 11 0 C10.67 0.99 10.34 1.98 10 3 C11.32 3.66 12.64 4.32 14 5 C8.06 5.495 8.06 5.495 2 6 C0 2 0 2 0 0 Z " fill="#535354" transform="translate(523,219)"/>
<path d="M0 0 C4.819 -0.235 8.463 0.548 13 2 C11 4 11 4 8.18 4.195 C7.089 4.172 5.999 4.149 4.875 4.125 C3.779 4.107 2.684 4.089 1.555 4.07 C0.712 4.047 -0.131 4.024 -1 4 C-1 4.33 -1 4.66 -1 5 C-2.65 5 -4.3 5 -6 5 C-5.67 4.01 -5.34 3.02 -5 2 C-3.35 2 -1.7 2 0 2 C0 1.34 0 0.68 0 0 Z " fill="#2E2F2E" transform="translate(454,40)"/>
<path d="M0 0 C2.495 2.495 2.359 3.673 2.625 7.125 C2.7 8.035 2.775 8.945 2.852 9.883 C2.901 10.581 2.95 11.28 3 12 C1.68 12 0.36 12 -1 12 C-2.589 10.411 -2.17 8.752 -2.188 6.562 C-2.202 5.759 -2.216 4.956 -2.23 4.129 C-2 2 -2 2 0 0 Z " fill="#595857" transform="translate(157,106)"/>
<path d="M0 0 C1.32 0.33 2.64 0.66 4 1 C4.369 10.41 4.369 10.41 2 15 C-0.026 11.651 -0.217 9.13 -0.125 5.25 C-0.098 3.773 -0.098 3.773 -0.07 2.266 C-0.036 1.144 -0.036 1.144 0 0 Z " fill="#545455" transform="translate(175,272)"/>
<path d="M0 0 C0.799 0.009 1.598 0.018 2.422 0.027 C3.025 0.039 3.628 0.051 4.25 0.062 C3.59 0.722 2.93 1.383 2.25 2.062 C3.24 2.722 4.23 3.383 5.25 4.062 C0.487 5.015 -3.917 5.146 -8.75 5.062 C-7.76 4.733 -6.77 4.403 -5.75 4.062 C-5.75 3.403 -5.75 2.742 -5.75 2.062 C-6.74 1.733 -7.73 1.403 -8.75 1.062 C-5.755 0.19 -3.114 -0.046 0 0 Z " fill="#272929" transform="translate(354.75,53.9375)"/>
<path d="M0 0 C0.33 1.32 0.66 2.64 1 4 C-2.149 5.05 -4.388 5.101 -7.688 5.062 C-8.681 5.053 -9.675 5.044 -10.699 5.035 C-11.838 5.018 -11.838 5.018 -13 5 C-8.78 -0.275 -6.385 -0.541 0 0 Z " fill="#292A2B" transform="translate(563,26)"/>
<path d="M0 0 C0.99 0.33 1.98 0.66 3 1 C2.481 1.412 1.961 1.825 1.426 2.25 C-6.118 8.497 -10.108 14.37 -12 24 C-12.33 24 -12.66 24 -13 24 C-12.58 14.739 -9.935 9.401 -3 3 C-2.402 2.402 -1.804 1.804 -1.188 1.188 C-0.796 0.796 -0.404 0.404 0 0 Z " fill="#EBE3D4" transform="translate(13,104)"/>
<path d="M0 0 C0.33 0.495 0.66 0.99 1 1.5 C-1.525 2.762 -3.312 2.599 -6.125 2.562 C-7.035 2.553 -7.945 2.544 -8.883 2.535 C-9.581 2.524 -10.28 2.512 -11 2.5 C-11 2.17 -11 1.84 -11 1.5 C-13.97 1.005 -13.97 1.005 -17 0.5 C-17 0.17 -17 -0.16 -17 -0.5 C-3.636 -2.727 -3.636 -2.727 0 0 Z " fill="#2D2F2F" transform="translate(596,23.5)"/>
<path d="M0 0 C1.226 0.014 1.226 0.014 2.477 0.027 C3.416 0.045 3.416 0.045 4.375 0.062 C4.045 0.723 3.715 1.382 3.375 2.062 C4.035 2.723 4.695 3.382 5.375 4.062 C2.16 5.67 -1.061 5.12 -4.625 5.062 C-4.295 4.402 -3.965 3.743 -3.625 3.062 C-4.615 2.402 -5.605 1.743 -6.625 1.062 C-4.22 -0.14 -2.675 -0.038 0 0 Z " fill="#303131" transform="translate(267.625,383.9375)"/>
<path d="M0 0 C1.32 0.33 2.64 0.66 4 1 C3.67 4.3 3.34 7.6 3 11 C2.67 10.01 2.34 9.02 2 8 C-1.278 8.752 -1.278 8.752 -3 12 C-2.492 7.682 -1.803 3.967 0 0 Z " fill="#6D6C6D" transform="translate(234,170)"/>
<path d="M0 0 C0.66 0 1.32 0 2 0 C2 6.93 2 13.86 2 21 C-1 18 -1 18 -1.328 14.023 C-1.318 12.474 -1.291 10.924 -1.25 9.375 C-1.245 8.586 -1.24 7.797 -1.234 6.984 C-1.154 1.154 -1.154 1.154 0 0 Z " fill="#EFECE7" transform="translate(731,141)"/>
<path d="M0 0 C1.98 0 3.96 0 6 0 C5.67 0.99 5.34 1.98 5 3 C8.3 3.33 11.6 3.66 15 4 C15 4.33 15 4.66 15 5 C8.932 6.229 3.201 7.276 -3 7 C-2.381 6.732 -1.762 6.464 -1.125 6.188 C1.3 5.044 1.3 5.044 3 2 C2.01 1.34 1.02 0.68 0 0 Z " fill="#8D8D8D" transform="translate(354,371)"/>
<path d="M0 0 C0 0.33 0 0.66 0 1 C-1.048 1.061 -2.096 1.121 -3.176 1.184 C-4.555 1.268 -5.934 1.353 -7.312 1.438 C-8.348 1.496 -8.348 1.496 -9.404 1.557 C-12.472 1.749 -15.07 2.023 -18 3 C-20.188 2.562 -20.188 2.562 -22 2 C-22 2.66 -22 3.32 -22 4 C-24.64 3.67 -27.28 3.34 -30 3 C-30 2.67 -30 2.34 -30 2 C-19.897 0.032 -10.253 -0.221 0 0 Z " fill="#4D4F50" transform="translate(726,4)"/>
<path d="M0 0 C0.66 0.99 1.32 1.98 2 3 C-1.015 4.005 -3.042 4.103 -6.188 4.062 C-7.539 4.049 -7.539 4.049 -8.918 4.035 C-9.605 4.024 -10.292 4.012 -11 4 C-10 1 -10 1 -7.75 -0.25 C-4.653 -1.095 -3.016 -1.06 0 0 Z " fill="#3F3F3F" transform="translate(526,221)"/>
<path d="M0 0 C2.062 0.25 2.062 0.25 4 1 C4.33 1.66 4.66 2.32 5 3 C8.029 3.658 8.029 3.658 11 4 C11 4.33 11 4.66 11 5 C5.06 5.495 5.06 5.495 -1 6 C-1.33 4.68 -1.66 3.36 -2 2 C-1.34 1.34 -0.68 0.68 0 0 Z " fill="#717271" transform="translate(470,147)"/>
<path d="M0 0 C1.454 0.031 1.454 0.031 2.938 0.062 C-0.162 3.31 -2.07 5.029 -6.75 5.188 C-8.39 5.126 -8.39 5.126 -10.062 5.062 C-10.062 3.729 -10.062 2.396 -10.062 1.062 C-8.608 1.093 -8.608 1.093 -7.125 1.125 C-3.564 1.052 -3.561 0.073 0 0 Z " fill="#414141" transform="translate(572.0625,133.9375)"/>
<path d="M0 0 C-0.33 1.32 -0.66 2.64 -1 4 C-4.3 4 -7.6 4 -11 4 C-11 3.34 -11 2.68 -11 2 C-11.99 1.67 -12.98 1.34 -14 1 C-9.277 0.229 -4.785 -0.098 0 0 Z " fill="#282C2D" transform="translate(358,372)"/>
<path d="M0 0 C0.66 0.33 1.32 0.66 2 1 C2.054 3.062 2.093 5.125 2.125 7.188 C2.148 8.336 2.171 9.485 2.195 10.668 C2.005 13.917 1.394 16.087 0 19 C-0.33 19 -0.66 19 -1 19 C-1.103 12.583 -0.745 6.373 0 0 Z " fill="#595A5B" transform="translate(436,204)"/>
<path d="M0 0 C1.207 0.031 1.207 0.031 2.438 0.062 C1.447 0.723 0.458 1.382 -0.562 2.062 C0.097 2.723 0.757 3.382 1.438 4.062 C-1.313 4.979 -2.922 5.171 -5.75 5.125 C-7.637 5.094 -7.637 5.094 -9.562 5.062 C-9.232 3.743 -8.903 2.423 -8.562 1.062 C-7.356 1.093 -7.356 1.093 -6.125 1.125 C-3.087 1.051 -3.038 0.074 0 0 Z " fill="#262829" transform="translate(145.5625,401.9375)"/>
<path d="M0 0 C4.428 1.392 6.956 3.521 10 7 C10 7.66 10 8.32 10 9 C10.66 9 11.32 9 12 9 C12.33 10.65 12.66 12.3 13 14 C12.34 13.319 11.68 12.639 11 11.938 C8.028 8.94 4.815 6.252 1.574 3.551 C1.055 3.039 0.535 2.527 0 2 C0 1.34 0 0.68 0 0 Z " fill="#F0EEEE" transform="translate(738,8)"/>
<path d="M0 0 C6.625 -0.25 6.625 -0.25 10 2 C9.01 2 8.02 2 7 2 C7 2.66 7 3.32 7 4 C4.36 4 1.72 4 -1 4 C-1.33 3.34 -1.66 2.68 -2 2 C-1.34 2 -0.68 2 0 2 C0 1.34 0 0.68 0 0 Z " fill="#2E3032" transform="translate(503,349)"/>
<path d="M0 0 C4.95 0 9.9 0 15 0 C14.34 0.66 13.68 1.32 13 2 C13.66 2.66 14.32 3.32 15 4 C9.198 4.363 5.36 3.257 0 1 C0 0.67 0 0.34 0 0 Z " fill="#2A2C2C" transform="translate(710,5)"/>
<path d="M0 0 C-0.99 0.66 -1.98 1.32 -3 2 C-2.01 2.66 -1.02 3.32 0 4 C-1.77 4.081 -3.541 4.139 -5.312 4.188 C-6.299 4.222 -7.285 4.257 -8.301 4.293 C-11 4 -11 4 -12.855 2.488 C-13.233 1.997 -13.611 1.506 -14 1 C-9.277 0.229 -4.785 -0.098 0 0 Z " fill="#4D4E4E" transform="translate(591,132)"/>
<path d="M0 0 C-0.33 0.66 -0.66 1.32 -1 2 C-0.01 2.66 0.98 3.32 2 4 C-0.64 4 -3.28 4 -6 4 C-6.33 3.34 -6.66 2.68 -7 2 C-9.017 0.866 -9.017 0.866 -11 0 C-6.95 -1.35 -4.208 -0.621 0 0 Z " fill="#323435" transform="translate(285,383)"/>
<path d="M0 0 C-3 1.5 -3 1.5 -6 3 C-6.99 2.34 -7.98 1.68 -9 1 C-5.927 0.089 -3.199 -0.089 0 0 Z M-9 3 C-8.01 3 -7.02 3 -6 3 C-6 3.66 -6 4.32 -6 5 C-3.36 5 -0.72 5 2 5 C2 5.33 2 5.66 2 6 C-1.63 6.33 -5.26 6.66 -9 7 C-9.33 6.01 -9.66 5.02 -10 4 C-9.67 3.67 -9.34 3.34 -9 3 Z " fill="#757474" transform="translate(509,183)"/>
<path d="M0 0 C1.32 0.66 2.64 1.32 4 2 C4 3.98 4 5.96 4 8 C1 8 1 8 -1 7 C-1.043 5 -1.041 3 -1 1 C-0.67 0.67 -0.34 0.34 0 0 Z " fill="#676868" transform="translate(181,318)"/>
<path d="M0 0 C1.98 0.99 1.98 0.99 4 2 C3.67 4.64 3.34 7.28 3 10 C2.01 10 1.02 10 0 10 C0 6.7 0 3.4 0 0 Z " fill="#5C5E5E" transform="translate(164,179)"/>
<path d="M0 0 C0 0.33 0 0.66 0 1 C-2.051 1.228 -4.102 1.456 -6.152 1.684 C-8.011 1.819 -8.011 1.819 -9 3 C-11.186 3.073 -13.375 3.084 -15.562 3.062 C-17.359 3.049 -17.359 3.049 -19.191 3.035 C-20.118 3.024 -21.045 3.012 -22 3 C-22 2.67 -22 2.34 -22 2 C-14.589 0.574 -7.551 -0.301 0 0 Z " fill="#C3C1B9" transform="translate(176,78)"/>
<path d="M0 0 C0 0.66 0 1.32 0 2 C0.99 2.33 1.98 2.66 3 3 C-0.05 4.525 -2.642 4.236 -6 4 C-7.938 2.5 -7.938 2.5 -9 1 C-5.804 -0.065 -3.343 -0.074 0 0 Z " fill="#494A4A" transform="translate(480,147)"/>
<path d="M0 0 C3.871 0.574 6.082 2.487 9 5 C5.7 5 2.4 5 -1 5 C-0.67 3.35 -0.34 1.7 0 0 Z " fill="#565757" transform="translate(484,186)"/>
<path d="M0 0 C0.33 0.66 0.66 1.32 1 2 C1.66 2 2.32 2 3 2 C3 3.98 3 5.96 3 8 C2.01 8.495 2.01 8.495 1 9 C0.67 8.34 0.34 7.68 0 7 C-0.66 8.32 -1.32 9.64 -2 11 C-1.125 3.375 -1.125 3.375 0 0 Z " fill="#555455" transform="translate(233,176)"/>
<path d="M0 0 C1.98 0.99 1.98 0.99 4 2 C4.076 4.674 4 7 3.438 9.625 C2.777 12.136 2.777 12.136 4 15 C3.01 14.67 2.02 14.34 1 14 C1.012 13.241 1.023 12.481 1.035 11.699 C1.044 10.705 1.053 9.711 1.062 8.688 C1.074 7.701 1.086 6.715 1.098 5.699 C1.123 2.9 1.123 2.9 0 0 Z " fill="#E6E1D6" transform="translate(7,151)"/>
<path d="M0 0 C2.64 0 5.28 0 8 0 C8.562 1.938 8.562 1.938 9 4 C8 5 8 5 5.438 5.062 C4.231 5.032 4.231 5.032 3 5 C3.99 4.67 4.98 4.34 6 4 C6 3.34 6 2.68 6 2 C4.02 2 2.04 2 0 2 C0 1.34 0 0.68 0 0 Z " fill="#656465" transform="translate(592,130)"/>
<path d="M0 0 C1.65 0 3.3 0 5 0 C4.34 0.66 3.68 1.32 3 2 C2.01 1.34 1.02 0.68 0 0 Z M3 2 C3.33 2.66 3.66 3.32 4 4 C0.326 5.176 -3.169 5.074 -7 5 C-3.682 1.937 -1.448 1.697 3 2 Z " fill="#282B2C" transform="translate(483,36)"/>
<path d="M0 0 C1.32 0 2.64 0 4 0 C3.67 2.97 3.34 5.94 3 9 C2.01 8.67 1.02 8.34 0 8 C0 5.36 0 2.72 0 0 Z " fill="#575858" transform="translate(186,365)"/>
<path d="M0 0 C1.65 0 3.3 0 5 0 C4.67 0.99 4.34 1.98 4 3 C4.66 3.33 5.32 3.66 6 4 C3.249 4.917 1.641 5.109 -1.188 5.062 C-3.075 5.032 -3.075 5.032 -5 5 C-1.25 3 -1.25 3 1 3 C0.67 2.01 0.34 1.02 0 0 Z " fill="#232424" transform="translate(116,406)"/>
<path d="M0 0 C0.949 0.041 1.897 0.083 2.875 0.125 C1.885 0.455 0.895 0.785 -0.125 1.125 C-0.125 1.785 -0.125 2.445 -0.125 3.125 C0.865 3.455 1.855 3.785 2.875 4.125 C0.565 4.455 -1.745 4.785 -4.125 5.125 C-4.455 4.135 -4.785 3.145 -5.125 2.125 C-3.125 0.125 -3.125 0.125 0 0 Z " fill="#2D2E2E" transform="translate(292.125,62.875)"/>
<path d="M0 0 C2 3 2 3 2 6 C1.34 6 0.68 6 0 6 C-0.33 7.65 -0.66 9.3 -1 11 C-1.66 11 -2.32 11 -3 11 C-3.495 12.98 -3.495 12.98 -4 15 C-4.315 10.387 -3.862 8.549 -1 5 C-0.286 2.351 -0.286 2.351 0 0 Z " fill="#DBDAD9" transform="translate(755,40)"/>
<path d="M0 0 C1 3 1 3 0.062 5.188 C-0.463 6.085 -0.463 6.085 -1 7 C-1.66 7 -2.32 7 -3 7 C-3.33 8.65 -3.66 10.3 -4 12 C-4.66 12 -5.32 12 -6 12 C-4.681 7.385 -2.786 3.901 0 0 Z " fill="#DAD5CE" transform="translate(737,129)"/>
<path d="M0 0 C0.33 0 0.66 0 1 0 C0.405 9.595 0.405 9.595 -3 13 C-3.495 10.525 -3.495 10.525 -4 8 C-3.01 7.67 -2.02 7.34 -1 7 C-0.67 4.69 -0.34 2.38 0 0 Z " fill="#E1DCDA" transform="translate(788,284)"/>
<path d="M0 0 C1.98 0 3.96 0 6 0 C6 1.32 6 2.64 6 4 C3.69 4 1.38 4 -1 4 C-0.67 2.68 -0.34 1.36 0 0 Z " fill="#2D2F2F" transform="translate(469,38)"/>
<path d="M0 0 C1.65 0 3.3 0 5 0 C5 0.66 5 1.32 5 2 C4.34 2 3.68 2 3 2 C3 2.66 3 3.32 3 4 C1.35 4 -0.3 4 -2 4 C-1.34 2.68 -0.68 1.36 0 0 Z " fill="#464546" transform="translate(610,170)"/>
<path d="M0 0 C2.786 1.393 2.935 3.16 4 6 C4.33 6.33 4.66 6.66 5 7 C5.041 8.666 5.043 10.334 5 12 C-0.273 5.049 -0.273 5.049 0 0 Z " fill="#F6F5F4" transform="translate(752,51)"/>
<path d="M0 0 C0.33 0 0.66 0 1 0 C1 3.3 1 6.6 1 10 C0.01 9.67 -0.98 9.34 -2 9 C-1.412 5.976 -0.773 2.982 0 0 Z " fill="#59595A" transform="translate(163,154)"/>
<path d="M0 0 C-0.33 1.65 -0.66 3.3 -1 5 C-2.98 5 -4.96 5 -7 5 C-6.01 4.34 -5.02 3.68 -4 3 C-4.99 2.34 -5.98 1.68 -7 1 C-4.509 0.313 -2.621 0 0 0 Z " fill="#232424" transform="translate(64,94)"/>
<path d="M0 0 C0 0.33 0 0.66 0 1 C-9.41 3.481 -9.41 3.481 -14 2 C-14 1.67 -14 1.34 -14 1 C-9.237 0.047 -4.833 -0.083 0 0 Z " fill="#666566" transform="translate(308,378)"/>
<path d="M0 0 C-2.901 1.934 -3.897 2.301 -7.188 2.625 C-8.446 2.749 -9.704 2.873 -11 3 C-10 1 -10 1 -7.75 -0.188 C-4.698 -1.089 -3.023 -0.864 0 0 Z " fill="#454646" transform="translate(526,221)"/>
<path d="M0 0 C4.542 -0.378 5.014 0.011 9 3 C5.7 3 2.4 3 -1 3 C-0.67 2.01 -0.34 1.02 0 0 Z " fill="#5B5D5C" transform="translate(578,134)"/>
<path d="M0 0 C1.887 0.031 1.887 0.031 3.812 0.062 C1.191 1.467 -1.219 2.679 -4.188 3.062 C-5.178 2.403 -6.167 1.743 -7.188 1.062 C-4.437 0.146 -2.828 -0.046 0 0 Z " fill="#262728" transform="translate(45.1875,96.9375)"/>
<path d="M0 0 C2.31 0 4.62 0 7 0 C7.33 0.99 7.66 1.98 8 3 C8.66 3.66 9.32 4.32 10 5 C7.03 4.505 7.03 4.505 4 4 C4.33 3.01 4.66 2.02 5 1 C3.35 1 1.7 1 0 1 C0 0.67 0 0.34 0 0 Z " fill="#3E3F3E" transform="translate(688,7)"/>
<path d="M0 0 C1.98 0 3.96 0 6 0 C5.67 0.99 5.34 1.98 5 3 C3.35 3 1.7 3 0 3 C0 2.01 0 1.02 0 0 Z " fill="#716D68" transform="translate(643,333)"/>
<path d="M0 0 C1.354 2.709 1.065 5.009 1 8 C0.01 8 -0.98 8 -2 8 C-2.125 5.125 -2.125 5.125 -2 2 C-1.34 1.34 -0.68 0.68 0 0 Z " fill="#F8F2E5" transform="translate(784,233)"/>
</svg>
